<svg width="166" height="187" viewBox="0 0 166 187" fill="none" xmlns="http://www.w3.org/2000/svg">
<g opacity="0.3">
<path d="M161.445 130.367V148.589" stroke="white" stroke-width="0.5" stroke-miterlimit="10"/>
<path d="M161.445 134.733V143.558" stroke="white" stroke-width="3.42213" stroke-miterlimit="10"/>
<path d="M153.801 137.825V156.138" stroke="white" stroke-width="0.5" stroke-miterlimit="10"/>
<path d="M153.801 143.611V150.349" stroke="white" stroke-width="3.42213" stroke-miterlimit="10"/>
<path d="M146.164 133.08V151.775" stroke="white" stroke-width="0.5" stroke-miterlimit="10"/>
<path d="M146.164 138.87V145.92" stroke="white" stroke-width="3.42213" stroke-miterlimit="10"/>
<path d="M138.527 137.825V160.502" stroke="white" stroke-width="0.5" stroke-miterlimit="10"/>
<path d="M138.527 143.611V156.71" stroke="white" stroke-width="3.42213" stroke-miterlimit="10"/>
<path d="M130.882 137.825V153.528" stroke="white" stroke-width="0.5" stroke-miterlimit="10"/>
<path d="M130.882 143.611V150.004" stroke="white" stroke-width="3.42213" stroke-miterlimit="10"/>
<path d="M123.246 135.356V151.775" stroke="white" stroke-width="0.5" stroke-miterlimit="10"/>
<path d="M123.246 141.147V145.92" stroke="white" stroke-width="3.42213" stroke-miterlimit="10"/>
<path d="M115.601 137.825V169.231" stroke="white" stroke-width="0.5" stroke-miterlimit="10"/>
<path d="M115.601 143.611V165.815" stroke="white" stroke-width="3.42213" stroke-miterlimit="10"/>
<path d="M107.964 146.652V171.321" stroke="white" stroke-width="0.5" stroke-miterlimit="10"/>
<path d="M107.964 152.437V165.53" stroke="white" stroke-width="3.42213" stroke-miterlimit="10"/>
<path d="M100.327 147.696V175.782" stroke="white" stroke-width="0.5" stroke-miterlimit="10"/>
<path d="M100.327 153.007V169.991" stroke="white" stroke-width="3.42213" stroke-miterlimit="10"/>
<path d="M92.683 163.823V186.598" stroke="white" stroke-width="0.5" stroke-miterlimit="10"/>
<path d="M92.683 167.715V180.808" stroke="white" stroke-width="3.42213" stroke-miterlimit="10"/>
<path d="M85.0461 141.883V166.551" stroke="white" stroke-width="0.5" stroke-miterlimit="10"/>
<path d="M85.0461 147.669V163.803" stroke="white" stroke-width="3.42213" stroke-miterlimit="10"/>
<path d="M77.4073 143.896V168.57" stroke="white" stroke-width="0.5" stroke-miterlimit="10"/>
<path d="M77.4073 153.195V162.78" stroke="white" stroke-width="3.42213" stroke-miterlimit="10"/>
<path d="M69.7648 153.195V177.864" stroke="white" stroke-width="0.5" stroke-miterlimit="10"/>
<path d="M69.7648 163.727V172.079" stroke="white" stroke-width="3.42213" stroke-miterlimit="10"/>
<path d="M62.1261 158.986V183.655" stroke="white" stroke-width="0.5" stroke-miterlimit="10"/>
<path d="M62.1261 171.32V177.864" stroke="white" stroke-width="3.42213" stroke-miterlimit="10"/>
<path d="M54.4893 155.568V180.237" stroke="white" stroke-width="0.5" stroke-miterlimit="10"/>
<path d="M54.4893 166.483V174.453" stroke="white" stroke-width="3.42213" stroke-miterlimit="10"/>
<path d="M46.8447 153.195V177.864" stroke="white" stroke-width="0.5" stroke-miterlimit="10"/>
<path d="M46.8447 162.117V172.078" stroke="white" stroke-width="3.42213" stroke-miterlimit="10"/>
<path d="M39.2079 159.275V183.944" stroke="white" stroke-width="0.5" stroke-miterlimit="10"/>
<path d="M39.2079 162.786V178.161" stroke="white" stroke-width="3.42213" stroke-miterlimit="10"/>
<path d="M31.571 149.014V173.683" stroke="white" stroke-width="0.5" stroke-miterlimit="10"/>
<path d="M31.571 154.805V169.701" stroke="white" stroke-width="3.42213" stroke-miterlimit="10"/>
<path d="M23.9266 138.864V163.533" stroke="white" stroke-width="0.5" stroke-miterlimit="10"/>
<path d="M23.9266 144.655V159.739" stroke="white" stroke-width="3.42213" stroke-miterlimit="10"/>
<path d="M16.2898 143.041V167.71" stroke="white" stroke-width="0.5" stroke-miterlimit="10"/>
<path d="M16.2898 147.216V161.924" stroke="white" stroke-width="3.42213" stroke-miterlimit="10"/>
<path d="M8.65295 137.923V162.592" stroke="white" stroke-width="0.5" stroke-miterlimit="10"/>
<path d="M8.65295 143.708V147.787" stroke="white" stroke-width="3.42213" stroke-miterlimit="10"/>
<path d="M1.00842 132.321V156.99" stroke="white" stroke-width="0.5" stroke-miterlimit="10"/>
<path d="M1.00842 138.112V144.656" stroke="white" stroke-width="3.42213" stroke-miterlimit="10"/>
<path d="M173.761 87.429H121.406L92.7778 115.799H51.7702M18.242 115.799H51.7702M51.7702 115.799L40.1643 127.405M-40.0455 132.305H9.73098M9.73098 132.305H35.264L40.1643 127.405M9.73098 132.305L-0.0695772 122.763H-25.0868M40.1643 127.405H95.8727L122.105 101.614M175.825 97.2295H126.564L122.105 101.614M122.105 101.614L132.238 111.672H160.092" stroke="white" stroke-miterlimit="10"/>
<path d="M174.019 57.7701H135.333L118.569 42.2956H62.8601L40.1641 19.5995" stroke="white" stroke-miterlimit="10"/>
<path d="M173.246 68.6034H131.722L113.411 49.5181H84.267L73.4348 59.8345H27.0111M-169 17.7952H-76.1526L-34.1134 59.8345H27.0111M27.0111 59.8345L10.247 42.0387H-30.2447" stroke="white" stroke-miterlimit="10"/>
<path d="M175.568 48.4857H141.524L117.281 23.4685H71.8888L53.8352 4.38318H18.7595H14.633M-61.4503 4.38318H14.633M14.633 4.38318L-1.35743 20.1604M-51.6498 23.4685H-4.71025L-1.35743 20.1604M-1.35743 20.1604L-11.158 10.8309H-36.4331" stroke="white" stroke-miterlimit="10"/>
<path d="M177.631 39.4587C177.112 39.4587 169.009 39.4587 160.609 39.4587M87.1047 14.6994H122.438L146.94 39.4587C150.605 39.4587 155.659 39.4587 160.609 39.4587M160.609 39.4587L151.324 29.9161" stroke="white" stroke-miterlimit="10"/>
<path d="M173.504 77.629H115.474L111.727 81.4977M-37.9816 89.2349H16.6952L28.3011 102.388H49.7076M111.727 81.4977L97.9366 67.8285M111.727 81.4977L105.98 87.4296M105.98 87.4296L91.4889 102.388H49.7076M105.98 87.4296H74.2089L62.8609 75.8237H-16.0593M49.7076 102.388L36.0384 87.4296" stroke="white" stroke-miterlimit="10"/>
<circle cx="141" cy="47.999" r="4" fill="white"/>
<circle cx="150" cy="76.999" r="4" fill="white"/>
<circle cx="121" cy="101.999" r="4" fill="white"/>
<circle cx="14" cy="3.99902" r="4" fill="white"/>
<circle cx="34" cy="85.999" r="3" stroke="white" stroke-miterlimit="10"/>
<circle cx="95" cy="64.999" r="3" stroke="white" stroke-miterlimit="10"/>
<circle cx="84" cy="13.999" r="3" stroke="white" stroke-miterlimit="10"/>
<circle cx="148" cy="29.999" r="3" stroke="white" stroke-miterlimit="10"/>
<circle cx="39" cy="16.999" r="3" stroke="white" stroke-miterlimit="10"/>
<circle cx="15" cy="115.999" r="3" stroke="white" stroke-miterlimit="10"/>
</g>
</svg>
