<svg width="105" height="38" viewBox="0 0 105 38" fill="none" xmlns="http://www.w3.org/2000/svg" preserveAspectRatio="none">
<mask id="path-1-inside-1_166_2022" fill="white">
<path fill-rule="evenodd" clip-rule="evenodd" d="M5.5 0.499023C2.73858 0.499023 0.5 2.7376 0.5 5.49902V32.499C0.5 35.2604 2.73858 37.499 5.5 37.499H90.6203C92.3838 37.499 93.5526 35.2625 93.5526 33.499V33.499C93.5526 29.633 96.9836 26.499 101.216 26.499V26.499C102.81 26.499 104.5 25.3912 104.5 23.7965V5.49902C104.5 2.7376 102.261 0.499023 99.5 0.499023H5.5Z"/>
</mask>
<path fill-rule="evenodd" clip-rule="evenodd" d="M5.5 0.499023C2.73858 0.499023 0.5 2.7376 0.5 5.49902V32.499C0.5 35.2604 2.73858 37.499 5.5 37.499H90.6203C92.3838 37.499 93.5526 35.2625 93.5526 33.499V33.499C93.5526 29.633 96.9836 26.499 101.216 26.499V26.499C102.81 26.499 104.5 25.3912 104.5 23.7965V5.49902C104.5 2.7376 102.261 0.499023 99.5 0.499023H5.5Z" fill="#303EF5" fill-opacity="0.15"/>
<path d="M2.5 5.49902C2.5 3.84217 3.84315 2.49902 5.5 2.49902V-1.50098C1.63401 -1.50098 -1.5 1.63303 -1.5 5.49902H2.5ZM2.5 32.499V5.49902H-1.5V32.499H2.5ZM5.5 35.499C3.84315 35.499 2.5 34.1559 2.5 32.499H-1.5C-1.5 36.365 1.63401 39.499 5.5 39.499V35.499ZM90.6203 35.499H5.5V39.499H90.6203V35.499ZM95.5526 33.499C95.5526 30.9041 97.9139 28.499 101.216 28.499V24.499C96.0532 24.499 91.5526 28.3619 91.5526 33.499H95.5526ZM102.5 5.49902V23.7965H106.5V5.49902H102.5ZM99.5 2.49902C101.157 2.49902 102.5 3.84217 102.5 5.49902H106.5C106.5 1.63303 103.366 -1.50098 99.5 -1.50098V2.49902ZM5.5 2.49902H99.5V-1.50098H5.5V2.49902ZM101.216 28.499C102.447 28.499 103.696 28.081 104.672 27.3335C105.661 26.5756 106.5 25.3598 106.5 23.7965H102.5C102.5 23.8279 102.494 23.9634 102.24 24.1581C101.972 24.3632 101.58 24.499 101.216 24.499V28.499ZM90.6203 39.499C92.4278 39.499 93.7008 38.3511 94.4188 37.2592C95.1456 36.154 95.5526 34.7721 95.5526 33.499H91.5526C91.5526 33.9894 91.3752 34.6076 91.0767 35.0614C90.9348 35.2772 90.8033 35.398 90.7168 35.4554C90.6763 35.4823 90.6506 35.4922 90.6399 35.4956C90.6308 35.4986 90.6262 35.499 90.6203 35.499V39.499Z" fill="#EAECFE" mask="url(#path-1-inside-1_166_2022)"/>
</svg>
