<svg width="89" height="38" viewBox="0 0 89 38" fill="none" xmlns="http://www.w3.org/2000/svg" preserveAspectRatio="none">
<g filter="url(#filter0_b_166_2345)">
<mask id="path-1-inside-1_166_2345" fill="white">
<path fill-rule="evenodd" clip-rule="evenodd" d="M5.5 0.499084C2.73858 0.499084 0.5 2.73766 0.5 5.49908V32.4991C0.5 35.2605 2.73858 37.4991 5.5 37.4991H75.4967C77.2922 37.4991 78.5 35.2946 78.5 33.4991V33.4991C78.5 29.6331 81.634 26.4991 85.5 26.4991V26.4991C86.9394 26.4991 88.5 25.512 88.5 24.0726V5.49908C88.5 2.73766 86.2614 0.499084 83.5 0.499084H5.5Z"/>
</mask>
<path fill-rule="evenodd" clip-rule="evenodd" d="M5.5 0.499084C2.73858 0.499084 0.5 2.73766 0.5 5.49908V32.4991C0.5 35.2605 2.73858 37.4991 5.5 37.4991H75.4967C77.2922 37.4991 78.5 35.2946 78.5 33.4991V33.4991C78.5 29.6331 81.634 26.4991 85.5 26.4991V26.4991C86.9394 26.4991 88.5 25.512 88.5 24.0726V5.49908C88.5 2.73766 86.2614 0.499084 83.5 0.499084H5.5Z" fill="#303EF5" fill-opacity="0.15"/>
<path d="M2.5 5.49908C2.5 3.84223 3.84315 2.49908 5.5 2.49908V-1.50092C1.63401 -1.50092 -1.5 1.63309 -1.5 5.49908H2.5ZM2.5 32.4991V5.49908H-1.5V32.4991H2.5ZM5.5 35.4991C3.84315 35.4991 2.5 34.1559 2.5 32.4991H-1.5C-1.5 36.3651 1.63401 39.4991 5.5 39.4991V35.4991ZM75.4967 35.4991H5.5V39.4991H75.4967V35.4991ZM80.5 33.4991C80.5 30.7377 82.7386 28.4991 85.5 28.4991V24.4991C80.5294 24.4991 76.5 28.5285 76.5 33.4991H80.5ZM86.5 5.49908V24.0726H90.5V5.49908H86.5ZM83.5 2.49908C85.1569 2.49908 86.5 3.84223 86.5 5.49908H90.5C90.5 1.63309 87.366 -1.50092 83.5 -1.50092V2.49908ZM5.5 2.49908H83.5V-1.50092H5.5V2.49908ZM85.5 28.4991C86.6443 28.4991 87.8163 28.1168 88.7382 27.4268C89.6726 26.7274 90.5 25.5792 90.5 24.0726H86.5C86.5 24.0054 86.5471 24.0705 86.3413 24.2245C86.1231 24.3878 85.7951 24.4991 85.5 24.4991V28.4991ZM75.4967 39.4991C77.2888 39.4991 78.5801 38.3953 79.3265 37.2956C80.0773 36.1894 80.5 34.7983 80.5 33.4991H76.5C76.5 33.9953 76.3189 34.6042 76.0168 35.0492C75.7105 35.5006 75.5002 35.4991 75.4967 35.4991V39.4991Z" fill="#EAECFE" mask="url(#path-1-inside-1_166_2345)"/>
</g>
<defs>
<filter id="filter0_b_166_2345" x="-3.5" y="-3.50092" width="96" height="45" filterUnits="userSpaceOnUse" color-interpolation-filters="sRGB">
<feFlood flood-opacity="0" result="BackgroundImageFix"/>
<feGaussianBlur in="BackgroundImageFix" stdDeviation="2"/>
<feComposite in2="SourceAlpha" operator="in" result="effect1_backgroundBlur_166_2345"/>
<feBlend mode="normal" in="SourceGraphic" in2="effect1_backgroundBlur_166_2345" result="shape"/>
</filter>
</defs>
</svg>
