<svg width="24" height="24" viewBox="0 0 24 24" fill="none" xmlns="http://www.w3.org/2000/svg">
<path d="M7 9.2H10.5C10.7167 9.2 10.896 9.129 11.038 8.987C11.1793 8.84567 11.25 8.66667 11.25 8.45C11.25 8.23333 11.1793 8.054 11.038 7.912C10.896 7.77067 10.7167 7.7 10.5 7.7H7C6.78333 7.7 6.60433 7.77067 6.463 7.912C6.321 8.054 6.25 8.23333 6.25 8.45C6.25 8.66667 6.321 8.84567 6.463 8.987C6.60433 9.129 6.78333 9.2 7 9.2ZM13.75 17.25H17.25C17.4667 17.25 17.646 17.1793 17.788 17.038C17.9293 16.896 18 16.7167 18 16.5C18 16.2833 17.9293 16.1043 17.788 15.963C17.646 15.821 17.4667 15.75 17.25 15.75H13.75C13.5333 15.75 13.3543 15.821 13.213 15.963C13.071 16.1043 13 16.2833 13 16.5C13 16.7167 13.071 16.896 13.213 17.038C13.3543 17.1793 13.5333 17.25 13.75 17.25ZM13.75 14.75H17.25C17.4667 14.75 17.646 14.679 17.788 14.537C17.9293 14.3957 18 14.2167 18 14C18 13.7833 17.9293 13.604 17.788 13.462C17.646 13.3207 17.4667 13.25 17.25 13.25H13.75C13.5333 13.25 13.3543 13.3207 13.213 13.462C13.071 13.604 13 13.7833 13 14C13 14.2167 13.071 14.3957 13.213 14.537C13.3543 14.679 13.5333 14.75 13.75 14.75ZM8.75 18C8.96667 18 9.146 17.9293 9.288 17.788C9.42933 17.646 9.5 17.4667 9.5 17.25V16H10.75C10.9667 16 11.146 15.929 11.288 15.787C11.4293 15.6457 11.5 15.4667 11.5 15.25C11.5 15.0333 11.4293 14.854 11.288 14.712C11.146 14.5707 10.9667 14.5 10.75 14.5H9.5V13.25C9.5 13.0333 9.42933 12.854 9.288 12.712C9.146 12.5707 8.96667 12.5 8.75 12.5C8.53333 12.5 8.35433 12.5707 8.213 12.712C8.071 12.854 8 13.0333 8 13.25V14.5H6.75C6.53333 14.5 6.35433 14.5707 6.213 14.712C6.071 14.854 6 15.0333 6 15.25C6 15.4667 6.071 15.6457 6.213 15.787C6.35433 15.929 6.53333 16 6.75 16H8V17.25C8 17.4667 8.071 17.646 8.213 17.788C8.35433 17.9293 8.53333 18 8.75 18ZM13.575 10.425C13.725 10.575 13.9 10.65 14.1 10.65C14.3 10.65 14.475 10.575 14.625 10.425L15.5 9.55L16.4 10.45C16.5333 10.5833 16.7 10.65 16.9 10.65C17.1 10.65 17.275 10.575 17.425 10.425C17.5583 10.2917 17.625 10.1207 17.625 9.912C17.625 9.704 17.5583 9.525 17.425 9.375L16.55 8.45L17.45 7.55C17.5833 7.41667 17.65 7.25 17.65 7.05C17.65 6.85 17.575 6.675 17.425 6.525C17.275 6.375 17.1 6.3 16.9 6.3C16.7 6.3 16.525 6.375 16.375 6.525L15.5 7.4L14.6 6.5C14.4667 6.36667 14.3 6.3 14.1 6.3C13.9 6.3 13.725 6.375 13.575 6.525C13.425 6.675 13.35 6.85 13.35 7.05C13.35 7.25 13.425 7.425 13.575 7.575L14.45 8.45L13.55 9.375C13.4167 9.525 13.35 9.7 13.35 9.9C13.35 10.1 13.425 10.275 13.575 10.425ZM5 21C4.45 21 3.979 20.8043 3.587 20.413C3.19567 20.021 3 19.55 3 19V5C3 4.45 3.19567 3.979 3.587 3.587C3.979 3.19567 4.45 3 5 3H19C19.55 3 20.021 3.19567 20.413 3.587C20.8043 3.979 21 4.45 21 5V19C21 19.55 20.8043 20.021 20.413 20.413C20.021 20.8043 19.55 21 19 21H5Z" fill="white"/>
</svg>
