<svg width="33" height="33" viewBox="0 0 33 33" fill="none" xmlns="http://www.w3.org/2000/svg">
<path opacity="0.4" d="M28.4228 15.8721C28.4228 22.7302 22.8632 28.2898 16.0051 28.2898C9.14703 28.2898 3.58744 22.7302 3.58744 15.8721C3.58744 9.01401 9.14703 3.45442 16.0051 3.45442C22.8632 3.45442 28.4228 9.01401 28.4228 15.8721Z" fill="url(#paint0_linear_166_2560)" stroke="url(#paint1_linear_166_2560)" stroke-width="1.00008"/>
<path d="M18.9244 16.0012L16.9739 15.3166V10.9375H17.4389C18.4852 10.9375 19.3378 11.8546 19.3378 12.9785C19.3378 13.5081 19.777 13.9473 20.3066 13.9473C20.8363 13.9473 21.2755 13.5081 21.2755 12.9785C21.2755 10.7825 19.5574 8.99983 17.4389 8.99983H16.9739V8.2506C16.9739 7.72097 16.5347 7.28177 16.005 7.28177C15.4754 7.28177 15.0362 7.72097 15.0362 8.2506V8.99983H14.1965C12.2847 8.99983 10.7217 10.6145 10.7217 12.591C10.7217 14.9032 12.0651 15.6395 13.0856 16.0012L15.0362 16.6859V21.0521H14.5712C13.5248 21.0521 12.6723 20.1349 12.6723 19.0111C12.6723 18.4814 12.2331 18.0422 11.7034 18.0422C11.1738 18.0422 10.7346 18.4814 10.7346 19.0111C10.7346 21.2071 12.4527 22.9897 14.5712 22.9897H15.0362V23.7519C15.0362 24.2815 15.4754 24.7207 16.005 24.7207C16.5347 24.7207 16.9739 24.2815 16.9739 23.7519V23.0026H17.8135C19.7253 23.0026 21.2884 21.3879 21.2884 19.4115C21.2755 17.0863 19.932 16.35 18.9244 16.0012ZM13.7315 14.1798C13.0727 13.9473 12.6723 13.7277 12.6723 12.6039C12.6723 11.6867 13.3569 10.9504 14.2095 10.9504H15.0491V14.6449L13.7315 14.1798ZM17.8135 21.065H16.9739V17.3705L18.2786 17.8226C18.9374 18.0552 19.3378 18.2748 19.3378 19.3986C19.3378 20.3158 18.6532 21.065 17.8135 21.065Z" fill="white"/>
<defs>
<linearGradient id="paint0_linear_166_2560" x1="10.3627" y1="6.18785" x2="16.0051" y2="28.7898" gradientUnits="userSpaceOnUse">
<stop stop-color="white"/>
<stop offset="1" stop-color="white" stop-opacity="0"/>
</linearGradient>
<linearGradient id="paint1_linear_166_2560" x1="16.0051" y1="2.95438" x2="16.0051" y2="28.7898" gradientUnits="userSpaceOnUse">
<stop stop-color="white"/>
<stop offset="1" stop-color="white" stop-opacity="0"/>
</linearGradient>
</defs>
</svg>
