<svg width="31" height="32" viewBox="0 0 31 32" fill="none" xmlns="http://www.w3.org/2000/svg">
<path opacity="0.4" d="M27.9167 16.3689C27.9167 23.2265 22.3576 28.7856 15.5 28.7856C8.64251 28.7856 3.08337 23.2265 3.08337 16.3689C3.08337 9.5114 8.64251 3.95227 15.5 3.95227C22.3576 3.95227 27.9167 9.5114 27.9167 16.3689Z" fill="url(#paint0_linear_166_2160)" stroke="url(#paint1_linear_166_2160)"/>
<path d="M18.4191 16.4981L16.4687 15.8135V11.4348H16.9337C17.98 11.4348 18.8325 12.3519 18.8325 13.4756C18.8325 14.0052 19.2716 14.4444 19.8012 14.4444C20.3308 14.4444 20.77 14.0052 20.77 13.4756C20.77 11.2798 19.052 9.49727 16.9337 9.49727H16.4687V8.74811C16.4687 8.21852 16.0295 7.77936 15.5 7.77936C14.9704 7.77936 14.5312 8.21852 14.5312 8.74811V9.49727H13.6916C11.78 9.49727 10.217 11.1119 10.217 13.0881C10.217 15.4002 11.5604 16.1364 12.5808 16.4981L14.5312 17.1827V21.5485H14.0662C13.02 21.5485 12.1675 20.6314 12.1675 19.5077C12.1675 18.9781 11.7283 18.5389 11.1987 18.5389C10.6691 18.5389 10.23 18.9781 10.23 19.5077C10.23 21.7035 11.9479 23.486 14.0662 23.486H14.5312V24.2481C14.5312 24.7777 14.9704 25.2169 15.5 25.2169C16.0295 25.2169 16.4687 24.7777 16.4687 24.2481V23.4989H17.3083C19.22 23.4989 20.7829 21.8844 20.7829 19.9081C20.77 17.5831 19.4266 16.8469 18.4191 16.4981ZM13.2266 14.6769C12.5679 14.4444 12.1675 14.2248 12.1675 13.101C12.1675 12.1839 12.852 11.4477 13.7045 11.4477H14.5441V15.1419L13.2266 14.6769ZM17.3083 21.5614H16.4687V17.8673L17.7733 18.3194C18.432 18.5519 18.8325 18.7714 18.8325 19.8952C18.8325 20.8123 18.1479 21.5614 17.3083 21.5614Z" fill="#303EF5"/>
<defs>
<linearGradient id="paint0_linear_166_2160" x1="9.85809" y1="6.68548" x2="15.5" y2="29.2856" gradientUnits="userSpaceOnUse">
<stop stop-color="#303EF5"/>
<stop offset="1" stop-color="#303EF5" stop-opacity="0"/>
</linearGradient>
<linearGradient id="paint1_linear_166_2160" x1="15.5" y1="3.45227" x2="15.5" y2="29.2856" gradientUnits="userSpaceOnUse">
<stop stop-color="white"/>
<stop offset="1" stop-color="white" stop-opacity="0"/>
</linearGradient>
</defs>
</svg>
