<svg width="13" height="13" viewBox="0 0 13 13" fill="none" xmlns="http://www.w3.org/2000/svg">
<path d="M11.0046 3.75118H8.00456" stroke="#303EF5" stroke-width="1.50012" stroke-miterlimit="10" stroke-linecap="round" stroke-linejoin="round"/>
<path d="M3.00399 3.75118H1.00399" stroke="#303EF5" stroke-width="1.50012" stroke-miterlimit="10" stroke-linecap="round" stroke-linejoin="round"/>
<path d="M5.00417 5.50104C5.97067 5.50104 6.75417 4.71754 6.75417 3.75104C6.75417 2.78454 5.97067 2.00104 5.00417 2.00104C4.03767 2.00104 3.25417 2.78454 3.25417 3.75104C3.25417 4.71754 4.03767 5.50104 5.00417 5.50104Z" stroke="#303EF5" stroke-width="1.50012" stroke-miterlimit="10" stroke-linecap="round" stroke-linejoin="round"/>
<path d="M11.0046 9.25163H9.00465" stroke="#303EF5" stroke-width="1.50012" stroke-miterlimit="10" stroke-linecap="round" stroke-linejoin="round"/>
<path d="M4.00399 9.25163H1.00399" stroke="#303EF5" stroke-width="1.50012" stroke-miterlimit="10" stroke-linecap="round" stroke-linejoin="round"/>
<path d="M7.00434 11.0015C7.97084 11.0015 8.75434 10.218 8.75434 9.25149C8.75434 8.28499 7.97084 7.50149 7.00434 7.50149C6.03784 7.50149 5.25434 8.28499 5.25434 9.25149C5.25434 10.218 6.03784 11.0015 7.00434 11.0015Z" stroke="#303EF5" stroke-width="1.50012" stroke-miterlimit="10" stroke-linecap="round" stroke-linejoin="round"/>
</svg>
