<svg width="36" height="44" viewBox="0 0 36 44" fill="none" xmlns="http://www.w3.org/2000/svg">
<g filter="url(#filter0_b_166_2318)">
<path fill-rule="evenodd" clip-rule="evenodd" d="M12.3622 18.398C12.3622 20.9739 14.4169 23.0381 16.9809 23.0381C19.5439 23.0381 21.5995 20.9739 21.5995 18.398C21.5995 15.8221 19.5439 13.7578 16.9809 13.7578C14.4169 13.7578 12.3622 15.8221 12.3622 18.398ZM23.9611 28.2931C23.9611 25.9084 20.7454 25.3118 16.9805 25.3118C13.1951 25.3118 9.99988 25.929 9.99988 28.3155C9.99988 30.7002 13.2155 31.2969 16.9805 31.2969C20.7658 31.2969 23.9611 30.6797 23.9611 28.2931Z" fill="url(#paint0_linear_166_2318)"/>
</g>
<g filter="url(#filter1_f_166_2318)">
<path d="M18.4968 26.8412C20.7954 26.8412 22.7585 27.2375 22.7585 28.8211C22.7585 30.4059 20.8078 30.8158 18.4968 30.8158C16.1983 30.8158 14.2351 30.4196 14.2351 28.836C14.2351 27.2511 16.1859 26.8412 18.4968 26.8412Z" fill="#303EF5" fill-opacity="0.35"/>
</g>
<g filter="url(#filter2_f_166_2318)">
<path d="M18.1095 20.7459C16.8191 20.7459 15.785 19.685 15.785 18.3612C15.785 17.0373 16.8191 15.9764 18.1095 15.9764C19.3995 15.9764 20.4341 17.0373 20.4341 18.3612C20.4341 19.685 19.3995 20.7459 18.1095 20.7459Z" fill="#303EF5" fill-opacity="0.35"/>
</g>
<g filter="url(#filter3_b_166_2318)">
<mask id="path-4-outside-1_166_2318" maskUnits="userSpaceOnUse" x="13.0018" y="10.9981" width="21" height="26" fill="black">
<rect fill="white" x="13.0018" y="10.9981" width="21" height="26"/>
<path fill-rule="evenodd" clip-rule="evenodd" d="M17.7909 18.0834C17.7909 21.4615 20.4855 24.1687 23.848 24.1687C27.2093 24.1687 29.9051 21.4615 29.9051 18.0834C29.9051 14.7053 27.2093 11.9981 23.848 11.9981C20.4855 11.9981 17.7909 14.7053 17.7909 18.0834ZM33.0018 31.0608C33.0018 27.9334 28.7847 27.1509 23.8472 27.1509C18.8829 27.1509 14.6925 27.9603 14.6925 31.0901C14.6925 34.2175 18.9097 35 23.8472 35C28.8115 35 33.0018 34.1906 33.0018 31.0608Z"/>
</mask>
<path fill-rule="evenodd" clip-rule="evenodd" d="M17.7909 18.0834C17.7909 21.4615 20.4855 24.1687 23.848 24.1687C27.2093 24.1687 29.9051 21.4615 29.9051 18.0834C29.9051 14.7053 27.2093 11.9981 23.848 11.9981C20.4855 11.9981 17.7909 14.7053 17.7909 18.0834ZM33.0018 31.0608C33.0018 27.9334 28.7847 27.1509 23.8472 27.1509C18.8829 27.1509 14.6925 27.9603 14.6925 31.0901C14.6925 34.2175 18.9097 35 23.8472 35C28.8115 35 33.0018 34.1906 33.0018 31.0608Z" fill="#303EF5" fill-opacity="0.35"/>
<path d="M23.848 25.1688C19.9288 25.1688 16.7908 22.0095 16.7908 18.0834H18.791C18.791 20.9136 21.0422 23.1686 23.848 23.1686V25.1688ZM30.9052 18.0834C30.9052 22.0096 27.7659 25.1688 23.848 25.1688V23.1686C26.6527 23.1686 28.905 20.9135 28.905 18.0834H30.9052ZM23.848 10.998C27.7659 10.998 30.9052 14.1572 30.9052 18.0834H28.905C28.905 15.2533 26.6527 12.9982 23.848 12.9982V10.998ZM16.7908 18.0834C16.7908 14.1573 19.9288 10.998 23.848 10.998V12.9982C21.0422 12.9982 18.791 15.2532 18.791 18.0834H16.7908ZM23.8472 26.1508C26.3387 26.1508 28.7687 26.3443 30.6072 26.9894C31.5331 27.3143 32.3794 27.7775 33.0014 28.453C33.6445 29.1514 34.0019 30.0287 34.0019 31.0608H32.0017C32.0017 30.5291 31.832 30.1358 31.5301 29.8079C31.2071 29.4572 30.6905 29.1384 29.9449 28.8767C28.4404 28.3488 26.2932 28.151 23.8472 28.151V26.1508ZM13.6925 31.0901C13.6925 30.0597 14.0466 29.1817 14.6858 28.4805C15.3047 27.8016 16.1479 27.3338 17.073 27.0046C18.9094 26.3512 21.3407 26.1508 23.8472 26.1508V28.151C21.3894 28.151 19.2433 28.3554 17.7435 28.889C17.0005 29.1534 16.4859 29.4748 16.1639 29.828C15.8623 30.1588 15.6926 30.5556 15.6926 31.0901H13.6925ZM23.8472 36.0001C21.3557 36.0001 18.9256 35.8067 17.0872 35.1615C16.1613 34.8366 15.315 34.3734 14.6929 33.6979C14.0499 32.9995 13.6925 32.1222 13.6925 31.0901H15.6926C15.6926 31.6218 15.8624 32.0151 16.1643 32.343C16.4873 32.6938 17.0039 33.0126 17.7494 33.2742C19.2539 33.8021 21.4012 33.9999 23.8472 33.9999V36.0001ZM34.0019 31.0608C34.0019 32.0912 33.6478 32.9692 33.0086 33.6704C32.3897 34.3493 31.5465 34.8171 30.6214 35.1463C28.785 35.7997 26.3537 36.0001 23.8472 36.0001V33.9999C26.305 33.9999 28.451 33.7956 29.9508 33.2619C30.6939 32.9975 31.2085 32.6761 31.5305 32.3229C31.8321 31.9921 32.0017 31.5953 32.0017 31.0608H34.0019Z" fill="url(#paint1_linear_166_2318)" mask="url(#path-4-outside-1_166_2318)"/>
</g>
<defs>
<filter id="filter0_b_166_2318" x="-3.00119" y="0.756744" width="39.9633" height="43.5412" filterUnits="userSpaceOnUse" color-interpolation-filters="sRGB">
<feFlood flood-opacity="0" result="BackgroundImageFix"/>
<feGaussianBlur in="BackgroundImageFix" stdDeviation="6.50053"/>
<feComposite in2="SourceAlpha" operator="in" result="effect1_backgroundBlur_166_2318"/>
<feBlend mode="normal" in="SourceGraphic" in2="effect1_backgroundBlur_166_2318" result="shape"/>
</filter>
<filter id="filter1_f_166_2318" x="1.23404" y="13.8402" width="34.5256" height="29.9767" filterUnits="userSpaceOnUse" color-interpolation-filters="sRGB">
<feFlood flood-opacity="0" result="BackgroundImageFix"/>
<feBlend mode="normal" in="SourceGraphic" in2="BackgroundImageFix" result="shape"/>
<feGaussianBlur stdDeviation="6.50053" result="effect1_foregroundBlur_166_2318"/>
</filter>
<filter id="filter2_f_166_2318" x="0.78368" y="0.975208" width="34.6516" height="34.7719" filterUnits="userSpaceOnUse" color-interpolation-filters="sRGB">
<feFlood flood-opacity="0" result="BackgroundImageFix"/>
<feBlend mode="normal" in="SourceGraphic" in2="BackgroundImageFix" result="shape"/>
<feGaussianBlur stdDeviation="7.50062" result="effect1_foregroundBlur_166_2318"/>
</filter>
<filter id="filter3_b_166_2318" x="-1.30873" y="-4.00319" width="50.3119" height="55.0045" filterUnits="userSpaceOnUse" color-interpolation-filters="sRGB">
<feFlood flood-opacity="0" result="BackgroundImageFix"/>
<feGaussianBlur in="BackgroundImageFix" stdDeviation="7.50062"/>
<feComposite in2="SourceAlpha" operator="in" result="effect1_backgroundBlur_166_2318"/>
<feBlend mode="normal" in="SourceGraphic" in2="effect1_backgroundBlur_166_2318" result="shape"/>
</filter>
<linearGradient id="paint0_linear_166_2318" x1="9.94289" y1="13.7578" x2="27.8801" y2="25.3544" gradientUnits="userSpaceOnUse">
<stop stop-color="#303EF5" stop-opacity="0.38"/>
<stop offset="1" stop-color="#3543F6"/>
</linearGradient>
<linearGradient id="paint1_linear_166_2318" x1="30.0873" y1="14.6779" x2="15.079" y2="29.4738" gradientUnits="userSpaceOnUse">
<stop stop-color="white" stop-opacity="0.25"/>
<stop offset="1" stop-color="white" stop-opacity="0"/>
</linearGradient>
</defs>
</svg>
