<svg width="19" height="15" viewBox="0 0 19 15" fill="none" xmlns="http://www.w3.org/2000/svg">
<path d="M8.74075 3.72452L8.77977 4.33011L8.12941 4.25596C5.76213 3.9717 3.69401 3.00771 1.93805 1.38868L1.07959 0.585348L0.858466 1.17858C0.390212 2.50099 0.689374 3.89755 1.6649 4.83683C2.18519 5.35591 2.06812 5.43006 1.17064 5.12109C0.858466 5.02222 0.585318 4.94806 0.559304 4.98514C0.468254 5.07165 0.780424 6.19632 1.02756 6.64124C1.36574 7.25919 2.05512 7.86478 2.80953 8.22319L3.44687 8.50744L2.69246 8.5198C1.96407 8.5198 1.93805 8.53216 2.01609 8.7917C2.27624 9.59503 3.30379 10.4478 4.44842 10.8186L5.25485 11.0781L4.55247 11.4736C3.51191 12.0421 2.28924 12.3634 1.06658 12.3882C0.481261 12.4005 0 12.45 0 12.487C0 12.6106 1.58686 13.3027 2.51036 13.5746C5.28087 14.378 8.57165 14.0319 11.043 12.6601C12.7989 11.6837 14.5549 9.74334 15.3743 7.86478C15.8166 6.8637 16.2588 5.03457 16.2588 4.15709C16.2588 3.58858 16.2978 3.51442 17.0262 2.83468C17.4555 2.43919 17.8587 2.00663 17.9367 1.88304C18.0668 1.64822 18.0538 1.64822 17.3904 1.85832C16.2848 2.22909 16.1288 2.17965 16.6751 1.6235C17.0783 1.22801 17.5595 0.511195 17.5595 0.301092C17.5595 0.264015 17.3644 0.32581 17.1433 0.437041C16.9092 0.56063 16.3889 0.746015 15.9987 0.857246L15.2963 1.06735L14.659 0.659502C14.3078 0.437041 13.8135 0.189862 13.5534 0.115708C12.89 -0.0573178 11.8754 -0.0325998 11.2771 0.165144C9.65124 0.721297 8.62368 2.15494 8.74075 3.72452Z" fill="#55ACEE"/>
</svg>
