<svg width="36" height="42" viewBox="0 0 36 42" fill="none" xmlns="http://www.w3.org/2000/svg">
<g filter="url(#filter0_b_166_2598)">
<path fill-rule="evenodd" clip-rule="evenodd" d="M12.656 17.3425C12.656 19.6944 14.5321 21.5792 16.8731 21.5792C19.2132 21.5792 21.0901 19.6944 21.0901 17.3425C21.0901 14.9906 19.2132 13.1058 16.8731 13.1058C14.5321 13.1058 12.656 14.9906 12.656 17.3425ZM23.2463 26.3772C23.2463 24.1999 20.3102 23.6551 16.8727 23.6551C13.4165 23.6551 10.4991 24.2186 10.4991 26.3977C10.4991 28.575 13.4352 29.1198 16.8727 29.1198C20.3289 29.1198 23.2463 28.5562 23.2463 26.3772Z" fill="url(#paint0_linear_166_2598)"/>
</g>
<g filter="url(#filter1_f_166_2598)">
<path d="M18.2572 25.0516C20.3558 25.0516 22.1483 25.4133 22.1483 26.8592C22.1483 28.3063 20.3672 28.6805 18.2572 28.6805C16.1586 28.6805 14.3661 28.3187 14.3661 26.8728C14.3661 25.4258 16.1472 25.0516 18.2572 25.0516" fill="#303EF5" fill-opacity="0.35"/>
</g>
<g filter="url(#filter2_f_166_2598)">
<path d="M17.9033 19.4864C16.7251 19.4864 15.7809 18.5178 15.7809 17.309C15.7809 16.1003 16.7251 15.1317 17.9033 15.1317C19.0811 15.1317 20.0258 16.1003 20.0258 17.309C20.0258 18.5178 19.0811 19.4864 17.9033 19.4864" fill="#303EF5" fill-opacity="0.35"/>
</g>
<g filter="url(#filter3_b_166_2598)">
<mask id="path-4-outside-1_166_2598" maskUnits="userSpaceOnUse" x="13.5009" y="10.4991" width="19" height="24" fill="black">
<rect fill="white" x="13.5009" y="10.4991" width="19" height="24"/>
<path fill-rule="evenodd" clip-rule="evenodd" d="M17.6124 17.0553C17.6124 20.1397 20.0727 22.6114 23.1428 22.6114C26.2118 22.6114 28.6732 20.1397 28.6732 17.0553C28.6732 13.9709 26.2118 11.4991 23.1428 11.4991C20.0727 11.4991 17.6124 13.9709 17.6124 17.0553ZM31.5009 28.9042C31.5009 26.0487 27.6504 25.3343 23.1423 25.3343C18.6096 25.3343 14.7837 26.0733 14.7837 28.931C14.7837 31.7864 18.6341 32.5009 23.1423 32.5009C27.6749 32.5009 31.5009 31.7618 31.5009 28.9042Z"/>
</mask>
<path fill-rule="evenodd" clip-rule="evenodd" d="M17.6124 17.0553C17.6124 20.1397 20.0727 22.6114 23.1428 22.6114C26.2118 22.6114 28.6732 20.1397 28.6732 17.0553C28.6732 13.9709 26.2118 11.4991 23.1428 11.4991C20.0727 11.4991 17.6124 13.9709 17.6124 17.0553ZM31.5009 28.9042C31.5009 26.0487 27.6504 25.3343 23.1423 25.3343C18.6096 25.3343 14.7837 26.0733 14.7837 28.931C14.7837 31.7864 18.6341 32.5009 23.1423 32.5009C27.6749 32.5009 31.5009 31.7618 31.5009 28.9042Z" fill="#303EF5" fill-opacity="0.35"/>
<path d="M23.1428 23.6115C19.516 23.6115 16.6123 20.6876 16.6123 17.0553H18.6125C18.6125 19.5917 20.6294 21.6114 23.1428 21.6114V23.6115ZM29.6733 17.0553C29.6733 20.6878 26.7683 23.6115 23.1428 23.6115V21.6114C25.6552 21.6114 27.6731 19.5916 27.6731 17.0553H29.6733ZM23.1428 10.4991C26.7683 10.4991 29.6733 13.4228 29.6733 17.0553H27.6731C27.6731 14.519 25.6552 12.4992 23.1428 12.4992V10.4991ZM16.6123 17.0553C16.6123 13.423 19.516 10.4991 23.1428 10.4991V12.4992C20.6294 12.4992 18.6125 14.5188 18.6125 17.0553H16.6123ZM23.1423 24.3342C25.4191 24.3342 27.6501 24.5106 29.3433 25.1048C30.1965 25.4042 30.9835 25.8334 31.5645 26.4643C32.1664 27.118 32.5009 27.9401 32.5009 28.9042H30.5008C30.5008 28.4405 30.354 28.1025 30.0931 27.8192C29.8112 27.513 29.3539 27.2282 28.681 26.9921C27.3218 26.5152 25.3736 26.3344 23.1423 26.3344V24.3342ZM13.7836 28.931C13.7836 27.9686 14.1149 27.146 14.7132 26.4897C15.2912 25.8557 16.0754 25.4222 16.928 25.1188C18.6193 24.517 20.8516 24.3342 23.1423 24.3342V26.3344C20.9003 26.3344 18.9533 26.5211 17.5985 27.0032C16.928 27.2418 16.4724 27.5289 16.1914 27.8372C15.9307 28.1231 15.7838 28.4645 15.7838 28.931H13.7836ZM23.1423 33.5009C20.8655 33.5009 18.6344 33.3245 16.9413 32.7304C16.088 32.431 15.301 32.0018 14.7201 31.3709C14.1181 30.7171 13.7836 29.895 13.7836 28.931H15.7838C15.7838 29.3947 15.9306 29.7327 16.1914 30.016C16.4733 30.3221 16.9307 30.6069 17.6036 30.843C18.9627 31.32 20.9109 31.5008 23.1423 31.5008V33.5009ZM32.5009 28.9042C32.5009 29.8665 32.1696 30.6892 31.5713 31.3455C30.9933 31.9795 30.2091 32.413 29.3566 32.7163C27.6652 33.3182 25.4329 33.5009 23.1423 33.5009V31.5008C25.3842 31.5008 27.3313 31.314 28.686 30.8319C29.3565 30.5933 29.8121 30.3063 30.0932 29.998C30.3539 29.712 30.5008 29.3706 30.5008 28.9042H32.5009Z" fill="url(#paint1_linear_166_2598)" mask="url(#path-4-outside-1_166_2598)"/>
</g>
<defs>
<filter id="filter0_b_166_2598" x="-2.50198" y="0.104767" width="38.7493" height="42.0161" filterUnits="userSpaceOnUse" color-interpolation-filters="sRGB">
<feFlood flood-opacity="0" result="BackgroundImageFix"/>
<feGaussianBlur in="BackgroundImageFix" stdDeviation="6.50053"/>
<feComposite in2="SourceAlpha" operator="in" result="effect1_backgroundBlur_166_2598"/>
<feBlend mode="normal" in="SourceGraphic" in2="effect1_backgroundBlur_166_2598" result="shape"/>
</filter>
<filter id="filter1_f_166_2598" x="1.36502" y="12.0505" width="33.7844" height="29.6311" filterUnits="userSpaceOnUse" color-interpolation-filters="sRGB">
<feFlood flood-opacity="0" result="BackgroundImageFix"/>
<feBlend mode="normal" in="SourceGraphic" in2="BackgroundImageFix" result="shape"/>
<feGaussianBlur stdDeviation="6.50053" result="effect1_foregroundBlur_166_2598"/>
</filter>
<filter id="filter2_f_166_2598" x="0.779652" y="0.130451" width="34.2473" height="34.3572" filterUnits="userSpaceOnUse" color-interpolation-filters="sRGB">
<feFlood flood-opacity="0" result="BackgroundImageFix"/>
<feBlend mode="normal" in="SourceGraphic" in2="BackgroundImageFix" result="shape"/>
<feGaussianBlur stdDeviation="7.50062" result="effect1_foregroundBlur_166_2598"/>
</filter>
<filter id="filter3_b_166_2598" x="8.78316" y="5.49864" width="28.7182" height="33.0027" filterUnits="userSpaceOnUse" color-interpolation-filters="sRGB">
<feFlood flood-opacity="0" result="BackgroundImageFix"/>
<feGaussianBlur in="BackgroundImageFix" stdDeviation="2.50021"/>
<feComposite in2="SourceAlpha" operator="in" result="effect1_backgroundBlur_166_2598"/>
<feBlend mode="normal" in="SourceGraphic" in2="effect1_backgroundBlur_166_2598" result="shape"/>
</filter>
<linearGradient id="paint0_linear_166_2598" x1="10.4471" y1="13.1058" x2="26.8245" y2="23.694" gradientUnits="userSpaceOnUse">
<stop stop-color="#303EF5" stop-opacity="0.38"/>
<stop offset="1" stop-color="#3543F6"/>
</linearGradient>
<linearGradient id="paint1_linear_166_2598" x1="28.8398" y1="13.9459" x2="15.1366" y2="27.4552" gradientUnits="userSpaceOnUse">
<stop stop-color="white" stop-opacity="0.25"/>
<stop offset="1" stop-color="white" stop-opacity="0"/>
</linearGradient>
</defs>
</svg>
