<svg width="54" height="54" viewBox="0 0 54 54" fill="none" xmlns="http://www.w3.org/2000/svg">
<path fill-rule="evenodd" clip-rule="evenodd" d="M17.9991 32.2816L17.9991 32.2816L17.9991 21.7559C17.9991 19.1284 20.1126 16.9989 22.7204 16.9989H31.0905C33.8245 16.9989 36.0537 19.2344 36.0537 21.9889V22.9057L36.0537 22.9057V33.4314C36.0537 36.0589 33.9401 38.1883 31.3324 38.1883H22.9623C20.2283 38.1883 17.9991 35.9529 17.9991 33.1983V32.2816Z" fill="url(#paint0_linear_166_2625)"/>
<g opacity="0.5" filter="url(#filter0_f_166_2625)">
<path d="M26.1377 32.2337C23.5279 32.2337 21.4122 30.118 21.4122 27.5082L21.4122 25.9599C21.4122 23.3501 23.5279 21.2344 26.1377 21.2344V21.2344C28.7475 21.2344 30.8632 23.3501 30.8632 25.9599L30.8632 27.5082C30.8632 30.118 28.7475 32.2337 26.1377 32.2337V32.2337Z" fill="#3341F6"/>
</g>
<g filter="url(#filter1_b_166_2625)">
<path d="M26.6886 21.812H34.4966L40.0009 27.7184V38.2441C40.0009 40.8716 37.8873 43.0011 35.2796 43.0011H26.9095C24.1755 43.0011 21.9463 40.7656 21.9463 38.0111L21.9463 26.5902C21.9463 23.9627 24.0704 21.812 26.6886 21.812Z" fill="#303EF5" fill-opacity="0.35"/>
<path d="M34.6795 21.6416C34.6323 21.5908 34.566 21.562 34.4966 21.562H26.6886C23.9301 21.562 21.6963 23.8268 21.6963 26.5902L21.6963 38.0111C21.6963 40.9026 24.0363 43.2511 26.9095 43.2511H35.2796C38.0272 43.2511 40.2509 41.0079 40.2509 38.2441V27.7184C40.2509 27.6551 40.2269 27.5942 40.1838 27.5479L34.6795 21.6416Z" stroke="url(#paint1_linear_166_2625)" stroke-width="0.500041" stroke-linecap="round" stroke-linejoin="round"/>
</g>
<mask id="path-5-inside-1_166_2625" fill="white">
<path fill-rule="evenodd" clip-rule="evenodd" d="M30.8937 30.1241H27.3398C26.9087 30.1241 26.5512 30.4843 26.5512 30.9186C26.5512 31.3529 26.9087 31.7025 27.3398 31.7025H30.8937C31.3247 31.7025 31.6822 31.3529 31.6822 30.9186C31.6822 30.4843 31.3247 30.1241 30.8937 30.1241ZM27.3398 36.9995H33.0596C33.4907 36.9995 33.8482 36.6393 33.8482 36.205C33.8482 35.7706 33.4907 35.421 33.0596 35.421H27.3398C26.9087 35.421 26.5512 35.7706 26.5512 36.205C26.5512 36.6393 26.9087 36.9995 27.3398 36.9995Z"/>
</mask>
<path fill-rule="evenodd" clip-rule="evenodd" d="M30.8937 30.1241H27.3398C26.9087 30.1241 26.5512 30.4843 26.5512 30.9186C26.5512 31.3529 26.9087 31.7025 27.3398 31.7025H30.8937C31.3247 31.7025 31.6822 31.3529 31.6822 30.9186C31.6822 30.4843 31.3247 30.1241 30.8937 30.1241ZM27.3398 36.9995H33.0596C33.4907 36.9995 33.8482 36.6393 33.8482 36.205C33.8482 35.7706 33.4907 35.421 33.0596 35.421H27.3398C26.9087 35.421 26.5512 35.7706 26.5512 36.205C26.5512 36.6393 26.9087 36.9995 27.3398 36.9995Z" fill="url(#paint2_linear_166_2625)"/>
<path d="M27.3398 31.1242H30.8937V29.124H27.3398V31.1242ZM27.5513 30.9186C27.5513 30.9804 27.5255 31.0309 27.4937 31.063C27.4618 31.0951 27.4082 31.1242 27.3398 31.1242V29.124C26.3493 29.124 25.5512 29.939 25.5512 30.9186H27.5513ZM27.3398 30.7025C27.4507 30.7025 27.5513 30.7903 27.5513 30.9186H25.5512C25.5512 31.9156 26.3668 32.7026 27.3398 32.7026V30.7025ZM30.8937 30.7025H27.3398V32.7026H30.8937V30.7025ZM30.6822 30.9186C30.6822 30.7903 30.7828 30.7025 30.8937 30.7025V32.7026C31.8667 32.7026 32.6823 31.9156 32.6823 30.9186H30.6822ZM30.8937 31.1242C30.8253 31.1242 30.7717 31.0951 30.7398 31.063C30.7079 31.0309 30.6822 30.9804 30.6822 30.9186H32.6823C32.6823 29.939 31.8841 29.124 30.8937 29.124V31.1242ZM33.0596 35.9994H27.3398V37.9996H33.0596V35.9994ZM32.8481 36.205C32.8481 36.1432 32.8739 36.0927 32.9057 36.0606C32.9376 36.0284 32.9912 35.9994 33.0596 35.9994V37.9996C34.0501 37.9996 34.8482 37.1845 34.8482 36.205H32.8481ZM33.0596 36.4211C32.9487 36.4211 32.8481 36.3333 32.8481 36.205H34.8482C34.8482 35.2079 34.0326 34.421 33.0596 34.421V36.4211ZM27.3398 36.4211H33.0596V34.421H27.3398V36.4211ZM27.5513 36.205C27.5513 36.3333 27.4506 36.4211 27.3398 36.4211V34.421C26.3668 34.421 25.5511 35.2079 25.5511 36.205H27.5513ZM27.3398 35.9994C27.4081 35.9994 27.4617 36.0284 27.4937 36.0606C27.5255 36.0927 27.5513 36.1432 27.5513 36.205H25.5511C25.5511 37.1845 26.3493 37.9996 27.3398 37.9996V35.9994Z" fill="url(#paint3_linear_166_2625)" mask="url(#path-5-inside-1_166_2625)"/>
<g filter="url(#filter2_bd_166_2625)">
<mask id="path-7-inside-2_166_2625" fill="white">
<path d="M35.47 28.5639C36.2028 28.5713 37.2217 28.5745 38.086 28.5713C38.5286 28.5702 38.7536 28.0374 38.4466 27.7164C37.3363 26.5532 35.3501 24.4716 34.2135 23.2808C33.8991 22.9514 33.3492 23.1781 33.3492 23.6347V26.4271C33.3492 27.5988 34.3071 28.5639 35.47 28.5639"/>
</mask>
<path d="M35.47 28.5639C36.2028 28.5713 37.2217 28.5745 38.086 28.5713C38.5286 28.5702 38.7536 28.0374 38.4466 27.7164C37.3363 26.5532 35.3501 24.4716 34.2135 23.2808C33.8991 22.9514 33.3492 23.1781 33.3492 23.6347V26.4271C33.3492 27.5988 34.3071 28.5639 35.47 28.5639" fill="url(#paint4_linear_166_2625)"/>
<path d="M38.086 28.5713L38.085 28.1713L38.0845 28.1713L38.086 28.5713ZM38.4466 27.7164L38.1572 27.9926L38.1575 27.9929L38.4466 27.7164ZM34.2135 23.2808L33.9241 23.557L33.9242 23.557L34.2135 23.2808ZM35.4659 28.9639C36.2008 28.9713 37.2215 28.9745 38.0874 28.9713L38.0845 28.1713C37.2219 28.1744 36.2049 28.1713 35.474 28.1639L35.4659 28.9639ZM38.0869 28.9713C38.8857 28.9694 39.2827 28.0118 38.7357 27.4399L38.1575 27.9929C38.2245 28.063 38.1715 28.1711 38.085 28.1713L38.0869 28.9713ZM38.736 27.4402C37.6228 26.274 35.6425 24.1985 34.5029 23.0046L33.9242 23.557C35.0578 24.7446 37.0498 26.8324 38.1572 27.9926L38.736 27.4402ZM34.5029 23.0047C33.9309 22.4052 32.9492 22.8294 32.9492 23.6347H33.7493C33.7493 23.6036 33.7578 23.584 33.7673 23.5705C33.7781 23.5552 33.7947 23.5416 33.8154 23.533C33.8361 23.5245 33.8561 23.5231 33.8722 23.5261C33.8859 23.5287 33.9036 23.5355 33.9241 23.557L34.5029 23.0047ZM32.9492 23.6347V26.4271H33.7493V23.6347H32.9492ZM32.9492 26.4271C32.9492 27.8169 34.0833 28.9639 35.47 28.9639V28.1639C34.5309 28.1639 33.7493 27.3807 33.7493 26.4271H32.9492Z" fill="url(#paint5_linear_166_2625)" mask="url(#path-7-inside-2_166_2625)"/>
</g>
<defs>
<filter id="filter0_f_166_2625" x="0.410507" y="0.232651" width="51.4544" height="53.0028" filterUnits="userSpaceOnUse" color-interpolation-filters="sRGB">
<feFlood flood-opacity="0" result="BackgroundImageFix"/>
<feBlend mode="normal" in="SourceGraphic" in2="BackgroundImageFix" result="shape"/>
<feGaussianBlur stdDeviation="10.5009" result="effect1_foregroundBlur_166_2625"/>
</filter>
<filter id="filter1_b_166_2625" x="16.4458" y="16.3116" width="29.0555" height="32.1899" filterUnits="userSpaceOnUse" color-interpolation-filters="sRGB">
<feFlood flood-opacity="0" result="BackgroundImageFix"/>
<feGaussianBlur in="BackgroundImageFix" stdDeviation="2.50021"/>
<feComposite in2="SourceAlpha" operator="in" result="effect1_backgroundBlur_166_2625"/>
<feBlend mode="normal" in="SourceGraphic" in2="effect1_backgroundBlur_166_2625" result="shape"/>
</filter>
<filter id="filter2_bd_166_2625" x="18.348" y="8.1234" width="35.2414" height="35.4504" filterUnits="userSpaceOnUse" color-interpolation-filters="sRGB">
<feFlood flood-opacity="0" result="BackgroundImageFix"/>
<feGaussianBlur in="BackgroundImageFix" stdDeviation="7.50062"/>
<feComposite in2="SourceAlpha" operator="in" result="effect1_backgroundBlur_166_2625"/>
<feColorMatrix in="SourceAlpha" type="matrix" values="0 0 0 0 0 0 0 0 0 0 0 0 0 0 0 0 0 0 127 0" result="hardAlpha"/>
<feOffset dx="5.00041" dy="5.00041"/>
<feGaussianBlur stdDeviation="5.00041"/>
<feColorMatrix type="matrix" values="0 0 0 0 0.577356 0 0 0 0 0.359375 0 0 0 0 0.9375 0 0 0 0.25 0"/>
<feBlend mode="normal" in2="effect1_backgroundBlur_166_2625" result="effect2_dropShadow_166_2625"/>
<feBlend mode="normal" in="SourceGraphic" in2="effect2_dropShadow_166_2625" result="shape"/>
</filter>
<linearGradient id="paint0_linear_166_2625" x1="36.1274" y1="16.9989" x2="13.8868" y2="32.3902" gradientUnits="userSpaceOnUse">
<stop stop-color="#303EF5" stop-opacity="0.38"/>
<stop offset="1" stop-color="#3543F6"/>
</linearGradient>
<linearGradient id="paint1_linear_166_2625" x1="24.8203" y1="24.2806" x2="38.6271" y2="38.8511" gradientUnits="userSpaceOnUse">
<stop stop-color="white" stop-opacity="0.25"/>
<stop offset="1" stop-color="white" stop-opacity="0"/>
</linearGradient>
<linearGradient id="paint2_linear_166_2625" x1="33.3308" y1="31.3656" x2="25.2038" y2="31.6469" gradientUnits="userSpaceOnUse">
<stop stop-color="white"/>
<stop offset="1" stop-color="white" stop-opacity="0.2"/>
</linearGradient>
<linearGradient id="paint3_linear_166_2625" x1="27.7128" y1="30.9251" x2="32.0366" y2="36.6086" gradientUnits="userSpaceOnUse">
<stop stop-color="white" stop-opacity="0.25"/>
<stop offset="1" stop-color="white" stop-opacity="0"/>
</linearGradient>
<linearGradient id="paint4_linear_166_2625" x1="38.2168" y1="24.1084" x2="32.3806" y2="24.2914" gradientUnits="userSpaceOnUse">
<stop stop-color="white"/>
<stop offset="1" stop-color="white" stop-opacity="0.2"/>
</linearGradient>
<linearGradient id="paint5_linear_166_2625" x1="34.1832" y1="23.7593" x2="37.6846" y2="27.9295" gradientUnits="userSpaceOnUse">
<stop stop-color="white" stop-opacity="0.25"/>
<stop offset="1" stop-color="white" stop-opacity="0"/>
</linearGradient>
</defs>
</svg>
