<svg width="21" height="16" viewBox="0 0 21 16" fill="none" xmlns="http://www.w3.org/2000/svg">
<path d="M16.9581 1.70333C19.2171 5.00554 20.3326 8.73032 19.9155 13.0184C19.9139 13.0366 19.9043 13.0532 19.8893 13.0642C18.1788 14.313 16.5212 15.071 14.8871 15.5737C14.8745 15.5775 14.8609 15.5773 14.8483 15.5731C14.8357 15.5689 14.8247 15.5607 14.8169 15.5501C14.4395 15.0278 14.0964 14.4771 13.7958 13.8989C13.7786 13.8648 13.7944 13.8238 13.8298 13.8104C14.3746 13.6063 14.8927 13.3617 15.3909 13.0721C15.4303 13.0492 15.4327 12.9933 15.3965 12.9665C15.2907 12.8884 15.1859 12.8064 15.0857 12.7243C15.0669 12.7092 15.0417 12.7062 15.0205 12.7164C11.7854 14.2017 8.24163 14.2017 4.96835 12.7164C4.94709 12.7069 4.92184 12.7102 4.90358 12.7251C4.80357 12.8071 4.69856 12.8884 4.59382 12.9665C4.55755 12.9933 4.56055 13.0492 4.60005 13.0721C5.09836 13.3562 5.6164 13.6063 6.16045 13.8114C6.19569 13.8248 6.21246 13.8648 6.19495 13.8989C5.90093 14.4779 5.5579 15.0284 5.17337 15.5507C5.1566 15.5719 5.1291 15.5817 5.1031 15.5737C3.47672 15.071 1.81933 14.313 0.108685 13.0642C0.0944243 13.0532 0.0841836 13.0358 0.0826835 13.0177C-0.265847 9.30853 0.444455 5.55293 3.03744 1.70259C3.04368 1.69239 3.05318 1.68443 3.06418 1.67971C4.34003 1.09752 5.70691 0.669222 7.13553 0.424601C7.16154 0.42064 7.18754 0.432561 7.20104 0.455423C7.37756 0.76617 7.57931 1.16464 7.71583 1.49029C9.22172 1.26159 10.7511 1.26159 12.2885 1.49029C12.4251 1.17161 12.6197 0.76617 12.7955 0.455423C12.8017 0.444082 12.8115 0.435002 12.8233 0.429461C12.8349 0.423921 12.8483 0.422221 12.8611 0.424601C14.2904 0.669962 15.6572 1.09828 16.9321 1.67971C16.9433 1.68443 16.9527 1.69239 16.9581 1.70333ZM8.48139 8.75568C8.49715 7.65917 7.69308 6.75185 6.68374 6.75185C5.68265 6.75185 4.88634 7.65123 4.88634 8.75568C4.88634 9.8599 5.69841 10.7593 6.68374 10.7593C7.68508 10.7593 8.48139 9.8599 8.48139 8.75568ZM15.1275 8.75568C15.1431 7.65917 14.3392 6.75185 13.3302 6.75185C12.3287 6.75185 11.5324 7.65123 11.5324 8.75568C11.5324 9.8599 12.3445 10.7593 13.3302 10.7593C14.3392 10.7593 15.1275 9.8599 15.1275 8.75568Z" fill="#7289DA"/>
</svg>
