<svg width="40" height="41" viewBox="0 0 40 41" fill="none" xmlns="http://www.w3.org/2000/svg">
<g filter="url(#filter0_b_166_2604)">
<path d="M22.4417 11.2095L14.5215 13.3317C11.6353 14.1051 10.4381 16.1784 11.2114 19.0644L13.3314 26.9763C14.1047 29.8622 16.1781 31.0592 19.0644 30.2858L26.9846 28.1636C29.8708 27.3903 31.0604 25.319 30.2871 22.433L28.1671 14.5211C27.3938 11.6351 25.328 10.4362 22.4417 11.2095Z" fill="url(#paint0_linear_166_2604)"/>
</g>
<g opacity="0.5" filter="url(#filter1_f_166_2604)">
<path d="M26.3443 21.5782L24.906 16.13C24.3843 14.1538 23.0786 13.2677 21.3618 13.7209L15.547 15.256C13.8021 15.7167 13.1264 17.1258 13.6481 19.102L15.0863 24.5502C15.6165 26.5582 16.8911 27.4178 18.6361 26.9571L24.4508 25.4221C26.1676 24.9689 26.8744 23.5862 26.3443 21.5782Z" fill="#3341F6"/>
</g>
<g filter="url(#filter2_b_166_2604)">
<path d="M29.0308 30.2232C28.8357 30.2232 28.655 30.1148 28.5611 29.9486C28.4672 29.7752 28.4672 29.5729 28.5683 29.3994L29.2692 28.2289C29.4209 27.9688 29.7533 27.8893 30.0134 28.041C30.2736 28.1928 30.3531 28.5251 30.2013 28.7853L30.0713 29.002C31.856 28.5396 33.1711 26.921 33.1711 24.999C33.1711 24.7028 33.4167 24.4571 33.713 24.4571C34.0092 24.4571 34.2477 24.7028 34.2477 25.0062C34.2477 27.8821 31.9066 30.2232 29.0308 30.2232Z" fill="url(#paint1_linear_166_2604)"/>
<path d="M28.3413 30.0677L28.3412 30.0677L28.3434 30.0716C28.481 30.3149 28.744 30.4732 29.0308 30.4732C32.0446 30.4732 34.4977 28.0201 34.4977 25.0062C34.4977 24.5713 34.1538 24.2071 33.713 24.2071C33.2787 24.2071 32.9211 24.5647 32.9211 24.999C32.9211 26.6138 31.9326 28.0015 30.5234 28.5873C30.5543 28.2907 30.4193 27.9883 30.1394 27.8251C29.7662 27.6074 29.279 27.7176 29.0541 28.1016L28.3538 29.271L28.3538 29.271L28.3524 29.2735C28.206 29.5243 28.2069 29.8196 28.3413 30.0677Z" stroke="url(#paint2_linear_166_2604)" stroke-width="0.5" stroke-linecap="round" stroke-linejoin="round"/>
</g>
<g filter="url(#filter3_b_166_2604)">
<path d="M20.3386 21.5307C20.0423 21.5307 19.7966 21.2923 19.7966 20.9888C19.7966 18.113 22.1377 15.7719 25.0136 15.7719C25.2159 15.7719 25.3893 15.8802 25.4905 16.0464C25.5844 16.2198 25.5844 16.4222 25.4832 16.5956L24.7823 17.7589C24.6234 18.019 24.291 18.1057 24.0381 17.9468C23.778 17.795 23.6985 17.4627 23.8502 17.2025L23.9803 16.9858C22.2028 17.4482 20.8805 19.0668 20.8805 20.9888C20.8805 21.2923 20.6348 21.5307 20.3386 21.5307Z" fill="url(#paint3_linear_166_2604)"/>
<path d="M25.7103 15.9274L25.7106 15.9272L25.704 15.9164C25.5616 15.6824 25.3107 15.5219 25.0136 15.5219C21.9997 15.5219 19.5466 17.9749 19.5466 20.9888C19.5466 21.4325 19.9064 21.7807 20.3386 21.7807C20.7707 21.7807 21.1305 21.4325 21.1305 20.9888C21.1305 19.3751 22.1234 17.9877 23.5281 17.4013C23.4976 17.6963 23.6313 17.997 23.9086 18.1606C24.2865 18.3955 24.7695 18.2593 24.9957 17.8893L24.9965 17.8879L25.6974 16.7246L25.6974 16.7246L25.6992 16.7215C25.8455 16.4707 25.8446 16.1754 25.7103 15.9274Z" stroke="url(#paint4_linear_166_2604)" stroke-width="0.5" stroke-linecap="round" stroke-linejoin="round"/>
</g>
<g filter="url(#filter4_b_166_2604)">
<path d="M22.2536 23.248C19.9059 23.248 18 25.2405 18 27.6949C18 30.1494 19.9059 32.1418 22.2536 32.1418C24.6013 32.1418 26.5071 30.1494 26.5071 27.6949C26.5018 25.2405 24.6013 23.248 22.2536 23.248ZM21.7531 27.0716L23.0361 27.5391C23.4993 27.7116 23.7229 28.0511 23.7229 28.5743C23.7229 29.1754 23.2651 29.6707 22.7061 29.6707H22.6582V29.6985C22.6582 29.9267 22.4772 30.116 22.2589 30.116C22.0406 30.116 21.8596 29.9267 21.8596 29.6985V29.6651C21.2687 29.6373 20.7949 29.1197 20.7949 28.4741C20.7949 28.2459 20.9759 28.0567 21.1942 28.0567C21.4124 28.0567 21.5934 28.2459 21.5934 28.4741C21.5934 28.6745 21.7319 28.8359 21.9022 28.8359H22.7007C22.8232 28.8359 22.919 28.719 22.919 28.5743C22.919 28.3795 22.8871 28.3684 22.7646 28.3238L21.4816 27.8563C21.0238 27.6894 20.7949 27.3499 20.7949 26.8211C20.7949 26.22 21.2527 25.7247 21.8117 25.7247H21.8596V25.7024C21.8596 25.4743 22.0406 25.285 22.2589 25.285C22.4772 25.285 22.6582 25.4743 22.6582 25.7024V25.7358C23.2491 25.7637 23.7229 26.2813 23.7229 26.9269C23.7229 27.1551 23.5419 27.3443 23.3236 27.3443C23.1053 27.3443 22.9243 27.1551 22.9243 26.9269C22.9243 26.7265 22.7859 26.5651 22.6156 26.5651H21.817C21.6946 26.5651 21.5988 26.682 21.5988 26.8267C21.5934 27.0159 21.6254 27.0271 21.7531 27.0716Z" fill="url(#paint5_linear_166_2604)"/>
<path d="M26.7571 27.6949L26.7571 27.6944C26.7515 25.1134 24.7502 22.998 22.2536 22.998C19.7574 22.998 17.75 25.113 17.75 27.6949C17.75 30.2768 19.7574 32.3918 22.2536 32.3918C24.7497 32.3918 26.7571 30.2768 26.7571 27.6949ZM22.6582 29.4207C22.5201 29.4207 22.4082 29.5326 22.4082 29.6707V29.6985C22.4082 29.7992 22.3287 29.866 22.2589 29.866C22.189 29.866 22.1096 29.7992 22.1096 29.6985V29.6651C22.1096 29.5316 22.0047 29.4217 21.8714 29.4154C21.4269 29.3945 21.0449 28.9997 21.0449 28.4741C21.0449 28.3734 21.1243 28.3067 21.1942 28.3067C21.264 28.3067 21.3434 28.3734 21.3434 28.4741C21.3434 28.7743 21.5584 29.0859 21.9022 29.0859H22.7007C23.0029 29.0859 23.169 28.8114 23.169 28.5743C23.169 28.4857 23.1672 28.3542 23.0914 28.2477C23.0491 28.1884 22.997 28.1537 22.9543 28.1318C22.9199 28.1142 22.8815 28.1003 22.8558 28.091C22.8538 28.0902 22.8519 28.0896 22.8501 28.0889L21.5673 27.6215C21.5673 27.6215 21.5673 27.6214 21.5672 27.6214C21.3784 27.5525 21.2542 27.4552 21.1747 27.3358C21.0942 27.215 21.0449 27.0497 21.0449 26.8211C21.0449 26.3398 21.4084 25.9747 21.8117 25.9747H21.8596C21.9977 25.9747 22.1096 25.8628 22.1096 25.7247V25.7024C22.1096 25.6017 22.189 25.535 22.2589 25.535C22.3287 25.535 22.4082 25.6017 22.4082 25.7024V25.7358C22.4082 25.8693 22.513 25.9793 22.6464 25.9856C23.0909 26.0065 23.4729 26.4013 23.4729 26.9269C23.4729 27.0276 23.3935 27.0943 23.3236 27.0943C23.2538 27.0943 23.1743 27.0276 23.1743 26.9269C23.1743 26.6267 22.9594 26.3151 22.6156 26.3151H21.817C21.5166 26.3151 21.3507 26.5864 21.3488 26.8226C21.3464 26.9075 21.3447 27.0416 21.4239 27.1505C21.4677 27.2106 21.5218 27.2447 21.5641 27.2655C21.5991 27.2827 21.6383 27.2963 21.6653 27.3057C21.6667 27.3062 21.668 27.3066 21.6693 27.3071L22.9489 27.7734C22.9491 27.7735 22.9494 27.7736 22.9497 27.7737C23.1415 27.8453 23.2658 27.944 23.3448 28.0632C23.4247 28.184 23.4729 28.348 23.4729 28.5743C23.4729 29.0556 23.1093 29.4207 22.7061 29.4207H22.6582Z" stroke="url(#paint6_linear_166_2604)" stroke-width="0.5" stroke-linecap="round" stroke-linejoin="round"/>
</g>
<g filter="url(#filter5_b_166_2604)">
<path d="M32.6086 13C30.1007 13 28.0648 15.1285 28.0648 17.7504C28.0648 20.3724 30.1007 22.5008 32.6086 22.5008C35.1166 22.5008 37.1525 20.3724 37.1525 17.7504C37.1468 15.1285 35.1166 13 32.6086 13ZM32.0741 17.0845L33.4446 17.5839C33.9394 17.7683 34.1782 18.1309 34.1782 18.6898C34.1782 19.3319 33.6892 19.8611 33.092 19.8611H33.0408V19.8908C33.0408 20.1345 32.8475 20.3367 32.6143 20.3367C32.3812 20.3367 32.1878 20.1345 32.1878 19.8908V19.8551C31.5565 19.8254 31.0504 19.2725 31.0504 18.5828C31.0504 18.339 31.2438 18.1369 31.4769 18.1369C31.7101 18.1369 31.9035 18.339 31.9035 18.5828C31.9035 18.7968 32.0513 18.9692 32.2333 18.9692H33.0863C33.2171 18.9692 33.3195 18.8444 33.3195 18.6898C33.3195 18.4817 33.2854 18.4698 33.1546 18.4223L31.784 17.9228C31.2949 17.7445 31.0504 17.3818 31.0504 16.817C31.0504 16.1749 31.5395 15.6457 32.1366 15.6457H32.1878V15.6219C32.1878 15.3782 32.3812 15.176 32.6143 15.176C32.8475 15.176 33.0408 15.3782 33.0408 15.6219V15.6576C33.6721 15.6873 34.1782 16.2403 34.1782 16.9299C34.1782 17.1737 33.9849 17.3759 33.7517 17.3759C33.5185 17.3759 33.3252 17.1737 33.3252 16.9299C33.3252 16.7159 33.1773 16.5435 32.9953 16.5435H32.1423C32.0115 16.5435 31.9091 16.6683 31.9091 16.8229C31.9035 17.0251 31.9376 17.037 32.0741 17.0845Z" fill="url(#paint7_linear_166_2604)"/>
<path d="M32.7908 19.8611C32.7908 19.723 32.9028 19.6111 33.0408 19.6111H33.092C33.5334 19.6111 33.9282 19.2122 33.9282 18.6898C33.9282 18.4457 33.8763 18.2669 33.7885 18.1344C33.7018 18.0035 33.5658 17.896 33.3582 17.8185C33.3579 17.8184 33.3576 17.8183 33.3573 17.8182L31.9901 17.32C31.9888 17.3196 31.9874 17.3191 31.986 17.3186C31.9569 17.3085 31.9161 17.2943 31.8796 17.2764C31.8359 17.2549 31.7807 17.22 31.7362 17.1588C31.6553 17.0477 31.6566 16.9101 31.6592 16.8189C31.661 16.5729 31.8335 16.2935 32.1423 16.2935H32.9953C33.3508 16.2935 33.5752 16.6161 33.5752 16.9299C33.5752 17.0462 33.667 17.1259 33.7517 17.1259C33.8365 17.1259 33.9282 17.0462 33.9282 16.9299C33.9282 16.3603 33.5139 15.9302 33.0291 15.9073C32.8957 15.9011 32.7908 15.7911 32.7908 15.6576V15.6219C32.7908 15.5057 32.6991 15.426 32.6143 15.426C32.5296 15.426 32.4378 15.5057 32.4378 15.6219V15.6457C32.4378 15.7838 32.3259 15.8957 32.1878 15.8957H32.1366C31.6952 15.8957 31.3004 16.2946 31.3004 16.817C31.3004 17.0636 31.3536 17.2437 31.4419 17.3762C31.5292 17.5074 31.6651 17.6134 31.8696 17.6879C31.8696 17.688 31.8697 17.688 31.8697 17.688L33.24 18.1873L32.7908 19.8611ZM32.7908 19.8611V19.8908C32.7908 20.0071 32.6991 20.0867 32.6143 20.0867C32.5296 20.0867 32.4378 20.0071 32.4378 19.8908V19.8551C32.4378 19.7216 32.3329 19.6117 32.1996 19.6054M32.7908 19.8611L32.1996 19.6054M32.1996 19.6054C31.7147 19.5826 31.3004 19.1524 31.3004 18.5828M32.1996 19.6054L31.3004 18.5828M31.3004 18.5828C31.3004 18.4665 31.3922 18.3869 31.4769 18.3869M31.3004 18.5828L31.4769 18.3869M31.4769 18.3869C31.5617 18.3869 31.6535 18.4665 31.6535 18.5828M31.4769 18.3869L31.6535 18.5828M31.6535 18.5828C31.6535 18.8966 31.8779 19.2192 32.2333 19.2192M31.6535 18.5828L32.2333 19.2192M32.2333 19.2192H33.0863M32.2333 19.2192H33.0863M33.0863 19.2192C33.3968 19.2192 33.5695 18.9368 33.5695 18.6898M33.0863 19.2192L33.5695 18.6898M33.5695 18.6898C33.5695 18.5946 33.5672 18.4595 33.4897 18.3508M33.5695 18.6898L33.4897 18.3508M33.4897 18.3508C33.4467 18.2904 33.3935 18.2549 33.3495 18.2323M33.4897 18.3508L33.3495 18.2323M33.3495 18.2323C33.3137 18.214 33.2736 18.1995 33.2461 18.1895M33.3495 18.2323L33.2461 18.1895M33.2461 18.1895C33.244 18.1888 33.2421 18.188 33.2402 18.1874L33.2461 18.1895ZM37.4025 17.7504L37.4025 17.7499C37.3966 15.0014 35.2655 12.75 32.6086 12.75C29.9523 12.75 27.8148 15.001 27.8148 17.7504C27.8148 20.4998 29.9523 22.7508 32.6086 22.7508C35.265 22.7508 37.4025 20.4998 37.4025 17.7504Z" stroke="url(#paint8_linear_166_2604)" stroke-width="0.5" stroke-linecap="round" stroke-linejoin="round"/>
</g>
<defs>
<filter id="filter0_b_166_2604" x="-2.01837" y="-2.02011" width="45.536" height="45.5358" filterUnits="userSpaceOnUse" color-interpolation-filters="sRGB">
<feFlood flood-opacity="0" result="BackgroundImageFix"/>
<feGaussianBlur in="BackgroundImageFix" stdDeviation="6.5"/>
<feComposite in2="SourceAlpha" operator="in" result="effect1_backgroundBlur_166_2604"/>
<feBlend mode="normal" in="SourceGraphic" in2="effect1_backgroundBlur_166_2604" result="shape"/>
</filter>
<filter id="filter1_f_166_2604" x="0.476257" y="0.604675" width="39.0407" height="39.4739" filterUnits="userSpaceOnUse" color-interpolation-filters="sRGB">
<feFlood flood-opacity="0" result="BackgroundImageFix"/>
<feBlend mode="normal" in="SourceGraphic" in2="BackgroundImageFix" result="shape"/>
<feGaussianBlur stdDeviation="6.5" result="effect1_foregroundBlur_166_2604"/>
</filter>
<filter id="filter2_b_166_2604" x="22.9915" y="18.9571" width="16.7562" height="16.7661" filterUnits="userSpaceOnUse" color-interpolation-filters="sRGB">
<feFlood flood-opacity="0" result="BackgroundImageFix"/>
<feGaussianBlur in="BackgroundImageFix" stdDeviation="2.5"/>
<feComposite in2="SourceAlpha" operator="in" result="effect1_backgroundBlur_166_2604"/>
<feBlend mode="normal" in="SourceGraphic" in2="effect1_backgroundBlur_166_2604" result="shape"/>
</filter>
<filter id="filter3_b_166_2604" x="14.2966" y="10.2719" width="16.7634" height="16.7589" filterUnits="userSpaceOnUse" color-interpolation-filters="sRGB">
<feFlood flood-opacity="0" result="BackgroundImageFix"/>
<feGaussianBlur in="BackgroundImageFix" stdDeviation="2.5"/>
<feComposite in2="SourceAlpha" operator="in" result="effect1_backgroundBlur_166_2604"/>
<feBlend mode="normal" in="SourceGraphic" in2="effect1_backgroundBlur_166_2604" result="shape"/>
</filter>
<filter id="filter4_b_166_2604" x="12.5" y="17.748" width="19.5071" height="19.8938" filterUnits="userSpaceOnUse" color-interpolation-filters="sRGB">
<feFlood flood-opacity="0" result="BackgroundImageFix"/>
<feGaussianBlur in="BackgroundImageFix" stdDeviation="2.5"/>
<feComposite in2="SourceAlpha" operator="in" result="effect1_backgroundBlur_166_2604"/>
<feBlend mode="normal" in="SourceGraphic" in2="effect1_backgroundBlur_166_2604" result="shape"/>
</filter>
<filter id="filter5_b_166_2604" x="22.5648" y="7.5" width="20.0878" height="20.5008" filterUnits="userSpaceOnUse" color-interpolation-filters="sRGB">
<feFlood flood-opacity="0" result="BackgroundImageFix"/>
<feGaussianBlur in="BackgroundImageFix" stdDeviation="2.5"/>
<feComposite in2="SourceAlpha" operator="in" result="effect1_backgroundBlur_166_2604"/>
<feBlend mode="normal" in="SourceGraphic" in2="effect1_backgroundBlur_166_2604" result="shape"/>
</filter>
<linearGradient id="paint0_linear_166_2604" x1="23.9416" y1="19.5836" x2="9.1631" y2="19.1983" gradientUnits="userSpaceOnUse">
<stop stop-color="#303EF5" stop-opacity="0.38"/>
<stop offset="1" stop-color="#3543F6"/>
</linearGradient>
<linearGradient id="paint1_linear_166_2604" x1="34.2712" y1="24.4571" x2="27.944" y2="29.5871" gradientUnits="userSpaceOnUse">
<stop stop-color="#303EF5" stop-opacity="0.38"/>
<stop offset="1" stop-color="#3543F6"/>
</linearGradient>
<linearGradient id="paint2_linear_166_2604" x1="29.4078" y1="25.1288" x2="34.8575" y2="30.6063" gradientUnits="userSpaceOnUse">
<stop stop-color="white" stop-opacity="0.25"/>
<stop offset="1" stop-color="white" stop-opacity="0"/>
</linearGradient>
<linearGradient id="paint3_linear_166_2604" x1="25.5835" y1="15.7719" x2="19.2611" y2="20.911" gradientUnits="userSpaceOnUse">
<stop stop-color="#303EF5" stop-opacity="0.38"/>
<stop offset="1" stop-color="#3543F6"/>
</linearGradient>
<linearGradient id="paint4_linear_166_2604" x1="20.7141" y1="16.4428" x2="26.1569" y2="21.927" gradientUnits="userSpaceOnUse">
<stop stop-color="white" stop-opacity="0.25"/>
<stop offset="1" stop-color="white" stop-opacity="0"/>
</linearGradient>
<linearGradient id="paint5_linear_166_2604" x1="26.5419" y1="23.248" x2="16.8768" y2="30.7566" gradientUnits="userSpaceOnUse">
<stop stop-color="#303EF5" stop-opacity="0.38"/>
<stop offset="1" stop-color="#3543F6"/>
</linearGradient>
<linearGradient id="paint6_linear_166_2604" x1="19.3542" y1="24.2842" x2="27.7542" y2="32.3738" gradientUnits="userSpaceOnUse">
<stop stop-color="white" stop-opacity="0.25"/>
<stop offset="1" stop-color="white" stop-opacity="0"/>
</linearGradient>
<linearGradient id="paint7_linear_166_2604" x1="37.1896" y1="13" x2="26.8649" y2="21.0211" gradientUnits="userSpaceOnUse">
<stop stop-color="#303EF5" stop-opacity="0.38"/>
<stop offset="1" stop-color="#3543F6"/>
</linearGradient>
<linearGradient id="paint8_linear_166_2604" x1="29.5114" y1="14.1069" x2="38.4847" y2="22.7486" gradientUnits="userSpaceOnUse">
<stop stop-color="white" stop-opacity="0.25"/>
<stop offset="1" stop-color="white" stop-opacity="0"/>
</linearGradient>
</defs>
</svg>
