<svg width="48" height="46" viewBox="0 0 48 46" fill="none" xmlns="http://www.w3.org/2000/svg">
<g filter="url(#filter0_b_166_2577)">
<path d="M22.4417 10.7095L14.5215 12.8317C11.6353 13.6051 10.4381 15.6784 11.2114 18.5644L13.3314 26.4763C14.1047 29.3622 16.1781 30.5592 19.0644 29.7858L26.9846 27.6636C29.8708 26.8903 31.0604 24.819 30.2871 21.933L28.1671 14.0211C27.3938 11.1351 25.328 9.93616 22.4417 10.7095Z" fill="url(#paint0_linear_166_2577)"/>
</g>
<g opacity="0.5" filter="url(#filter1_f_166_2577)">
<path d="M26.3443 21.0782L24.906 15.63C24.3843 13.6538 23.0786 12.7677 21.3618 13.2209L15.547 14.756C13.8021 15.2167 13.1264 16.6258 13.6481 18.602L15.0863 24.0502C15.6165 26.0582 16.8911 26.9178 18.6361 26.4571L24.4508 24.9221C26.1676 24.4689 26.8744 23.0862 26.3443 21.0782Z" fill="#3341F6"/>
</g>
<g filter="url(#filter2_b_166_2577)">
<mask id="path-3-outside-1_166_2577" maskUnits="userSpaceOnUse" x="14.9827" y="14.3431" width="10.1555" height="9.17315" fill="black">
<rect fill="white" x="14.9827" y="14.3431" width="10.1555" height="9.17315"/>
<path d="M21.8693 15.3976L18.133 15.4628C16.7714 15.4865 16.0118 16.175 16.0326 17.3664L16.0896 20.6326C16.1104 21.8239 16.8936 22.4855 18.2552 22.4617L21.9915 22.3965C23.3531 22.3727 24.1092 21.6843 24.0884 20.4929L24.0314 17.2268C24.0106 16.0354 23.2309 15.3738 21.8693 15.3976Z"/>
</mask>
<path d="M21.8693 15.3976L18.133 15.4628C16.7714 15.4865 16.0118 16.175 16.0326 17.3664L16.0896 20.6326C16.1104 21.8239 16.8936 22.4855 18.2552 22.4617L21.9915 22.3965C23.3531 22.3727 24.1092 21.6843 24.0884 20.4929L24.0314 17.2268C24.0106 16.0354 23.2309 15.3738 21.8693 15.3976Z" fill="url(#paint1_linear_166_2577)"/>
<path d="M21.8781 15.8975C22.1542 15.8927 22.3741 15.6649 22.3693 15.3888C22.3644 15.1127 22.1367 14.8928 21.8606 14.8976L21.8781 15.8975ZM21.8606 14.8976C21.5845 14.9024 21.3646 15.1302 21.3694 15.4063C21.3742 15.6824 21.602 15.9023 21.8781 15.8975L21.8606 14.8976ZM21.8606 14.8976L18.1243 14.9628L18.1417 15.9627L21.8781 15.8975L21.8606 14.8976ZM18.1243 14.9628C17.3672 14.9761 16.7043 15.1752 16.2286 15.6062C15.7432 16.0462 15.5203 16.6664 15.5327 17.3751L16.5325 17.3577C16.5241 16.875 16.6706 16.5553 16.9002 16.3472C17.1395 16.1303 17.5373 15.9732 18.1417 15.9627L18.1243 14.9628ZM15.5327 17.3751L15.5897 20.6413L16.5895 20.6238L16.5325 17.3577L15.5327 17.3751ZM15.5897 20.6413C15.602 21.35 15.8464 21.962 16.347 22.3848C16.8374 22.799 17.5068 22.9748 18.2639 22.9616L18.2464 21.9618C17.642 21.9723 17.239 21.8293 16.9922 21.6208C16.7555 21.4209 16.5979 21.1065 16.5895 20.6238L15.5897 20.6413ZM18.2639 22.9616L22.0002 22.8964L21.9828 21.8966L18.2464 21.9618L18.2639 22.9616ZM22.0002 22.8964C22.7573 22.8832 23.4196 22.6841 23.8945 22.2526C24.3791 21.8124 24.6007 21.1922 24.5883 20.4842L23.5884 20.5017C23.5969 20.9851 23.4508 21.3047 23.2221 21.5125C22.9838 21.729 22.5872 21.886 21.9828 21.8966L22.0002 22.8964ZM24.5883 20.4842L24.5313 17.218L23.5314 17.2355L23.5884 20.5017L24.5883 20.4842ZM24.5313 17.218C24.5189 16.5101 24.2759 15.8979 23.7762 15.4749C23.2866 15.0603 22.6177 14.8844 21.8606 14.8976L21.8781 15.8975C22.4825 15.8869 22.8843 16.03 23.13 16.2381C23.3658 16.4377 23.523 16.7521 23.5314 17.2355L24.5313 17.218Z" fill="url(#paint2_linear_166_2577)" mask="url(#path-3-outside-1_166_2577)"/>
</g>
<g filter="url(#filter3_b_166_2577)">
<mask id="path-5-outside-2_166_2577" maskUnits="userSpaceOnUse" x="24.9851" y="14.1685" width="10.1555" height="9.17315" fill="black">
<rect fill="white" x="24.9851" y="14.1685" width="10.1555" height="9.17315"/>
<path d="M31.8717 15.223L28.1354 15.2882C26.7738 15.3119 26.0142 16.0004 26.035 17.1918L26.092 20.458C26.1128 21.6493 26.896 22.3109 28.2576 22.2871L31.9939 22.2219C33.3554 22.1981 34.1115 21.5097 34.0908 20.3183L34.0337 17.0522C34.0129 15.8608 33.2333 15.1992 31.8717 15.223Z"/>
</mask>
<path d="M31.8717 15.223L28.1354 15.2882C26.7738 15.3119 26.0142 16.0004 26.035 17.1918L26.092 20.458C26.1128 21.6493 26.896 22.3109 28.2576 22.2871L31.9939 22.2219C33.3554 22.1981 34.1115 21.5097 34.0908 20.3183L34.0337 17.0522C34.0129 15.8608 33.2333 15.1992 31.8717 15.223Z" fill="#303EF5" fill-opacity="0.35"/>
<path d="M31.8804 15.7229C32.1565 15.7181 32.3765 15.4903 32.3716 15.2142C32.3668 14.9381 32.1391 14.7182 31.863 14.723L31.8804 15.7229ZM31.863 14.723C31.5869 14.7279 31.367 14.9556 31.3718 15.2317C31.3766 15.5078 31.6043 15.7277 31.8804 15.7229L31.863 14.723ZM31.863 14.723L28.1267 14.7883L28.1441 15.7881L31.8804 15.7229L31.863 14.723ZM28.1267 14.7883C27.3696 14.8015 26.7067 15.0006 26.231 15.4316C25.7456 15.8716 25.5227 16.4918 25.535 17.2005L26.5349 17.1831C26.5265 16.7004 26.673 16.3807 26.9026 16.1726C27.1419 15.9557 27.5396 15.7987 28.1441 15.7881L28.1267 14.7883ZM25.535 17.2005L25.592 20.4667L26.5919 20.4492L26.5349 17.1831L25.535 17.2005ZM25.592 20.4667C25.6044 21.1754 25.8488 21.7874 26.3493 22.2102C26.8397 22.6244 27.5092 22.8003 28.2663 22.787L28.2488 21.7872C27.6444 21.7977 27.2414 21.6547 26.9946 21.4462C26.7579 21.2463 26.6003 20.9319 26.5919 20.4492L25.592 20.4667ZM28.2663 22.787L32.0026 22.7218L31.9851 21.722L28.2488 21.7872L28.2663 22.787ZM32.0026 22.7218C32.7597 22.7086 33.422 22.5095 33.8969 22.078C34.3815 21.6378 34.603 21.0176 34.5907 20.3096L33.5908 20.3271C33.5993 20.8105 33.4532 21.1301 33.2245 21.3379C32.9861 21.5544 32.5896 21.7114 31.9851 21.722L32.0026 22.7218ZM34.5907 20.3096L34.5337 17.0434L33.5338 17.0609L33.5908 20.3271L34.5907 20.3096ZM34.5337 17.0434C34.5213 16.3355 34.2782 15.7234 33.7786 15.3003C33.2889 14.8857 32.6201 14.7098 31.863 14.723L31.8804 15.7229C32.4849 15.7123 32.8867 15.8554 33.1324 16.0635C33.3682 16.2631 33.5254 16.5775 33.5338 17.0609L34.5337 17.0434Z" fill="url(#paint3_linear_166_2577)" mask="url(#path-5-outside-2_166_2577)"/>
</g>
<g filter="url(#filter4_b_166_2577)">
<mask id="path-7-outside-3_166_2577" maskUnits="userSpaceOnUse" x="14.9827" y="24.3431" width="10.1555" height="9.17315" fill="black">
<rect fill="white" x="14.9827" y="24.3431" width="10.1555" height="9.17315"/>
<path d="M21.8693 25.3976L18.133 25.4628C16.7714 25.4865 16.0118 26.175 16.0326 27.3664L16.0896 30.6326C16.1104 31.8239 16.8936 32.4855 18.2552 32.4617L21.9915 32.3965C23.3531 32.3727 24.1092 31.6843 24.0884 30.4929L24.0314 27.2268C24.0106 26.0354 23.2309 25.3738 21.8693 25.3976Z"/>
</mask>
<path d="M21.8693 25.3976L18.133 25.4628C16.7714 25.4865 16.0118 26.175 16.0326 27.3664L16.0896 30.6326C16.1104 31.8239 16.8936 32.4855 18.2552 32.4617L21.9915 32.3965C23.3531 32.3727 24.1092 31.6843 24.0884 30.4929L24.0314 27.2268C24.0106 26.0354 23.2309 25.3738 21.8693 25.3976Z" fill="#303EF5" fill-opacity="0.35"/>
<path d="M21.8781 25.8975C22.1542 25.8927 22.3741 25.6649 22.3693 25.3888C22.3644 25.1127 22.1367 24.8928 21.8606 24.8976L21.8781 25.8975ZM21.8606 24.8976C21.5845 24.9024 21.3646 25.1302 21.3694 25.4063C21.3742 25.6824 21.602 25.9023 21.8781 25.8975L21.8606 24.8976ZM21.8606 24.8976L18.1243 24.9628L18.1417 25.9627L21.8781 25.8975L21.8606 24.8976ZM18.1243 24.9628C17.3672 24.9761 16.7043 25.1752 16.2286 25.6062C15.7432 26.0462 15.5203 26.6664 15.5327 27.3751L16.5325 27.3577C16.5241 26.875 16.6706 26.5553 16.9002 26.3472C17.1395 26.1303 17.5373 25.9732 18.1417 25.9627L18.1243 24.9628ZM15.5327 27.3751L15.5897 30.6413L16.5895 30.6238L16.5325 27.3577L15.5327 27.3751ZM15.5897 30.6413C15.602 31.35 15.8464 31.962 16.347 32.3848C16.8374 32.799 17.5068 32.9748 18.2639 32.9616L18.2464 31.9618C17.642 31.9723 17.239 31.8293 16.9922 31.6208C16.7555 31.4209 16.5979 31.1065 16.5895 30.6238L15.5897 30.6413ZM18.2639 32.9616L22.0002 32.8964L21.9828 31.8966L18.2464 31.9618L18.2639 32.9616ZM22.0002 32.8964C22.7573 32.8832 23.4196 32.6841 23.8945 32.2526C24.3791 31.8124 24.6007 31.1922 24.5883 30.4842L23.5884 30.5017C23.5969 30.9851 23.4508 31.3047 23.2221 31.5125C22.9838 31.729 22.5872 31.886 21.9828 31.8966L22.0002 32.8964ZM24.5883 30.4842L24.5313 27.218L23.5314 27.2355L23.5884 30.5017L24.5883 30.4842ZM24.5313 27.218C24.5189 26.5101 24.2759 25.8979 23.7762 25.4749C23.2866 25.0603 22.6177 24.8844 21.8606 24.8976L21.8781 25.8975C22.4825 25.8869 22.8843 26.03 23.13 26.2381C23.3658 26.4377 23.523 26.7521 23.5314 27.2355L24.5313 27.218Z" fill="url(#paint4_linear_166_2577)" mask="url(#path-7-outside-3_166_2577)"/>
</g>
<g filter="url(#filter5_b_166_2577)">
<mask id="path-9-outside-4_166_2577" maskUnits="userSpaceOnUse" x="24.9851" y="24.1685" width="10.1555" height="9.17315" fill="black">
<rect fill="white" x="24.9851" y="24.1685" width="10.1555" height="9.17315"/>
<path d="M31.8717 25.223L28.1354 25.2882C26.7738 25.3119 26.0142 26.0004 26.035 27.1918L26.092 30.458C26.1128 31.6493 26.896 32.3109 28.2576 32.2871L31.9939 32.2219C33.3554 32.1981 34.1115 31.5097 34.0908 30.3183L34.0337 27.0522C34.0129 25.8608 33.2333 25.1992 31.8717 25.223Z"/>
</mask>
<path d="M31.8717 25.223L28.1354 25.2882C26.7738 25.3119 26.0142 26.0004 26.035 27.1918L26.092 30.458C26.1128 31.6493 26.896 32.3109 28.2576 32.2871L31.9939 32.2219C33.3554 32.1981 34.1115 31.5097 34.0908 30.3183L34.0337 27.0522C34.0129 25.8608 33.2333 25.1992 31.8717 25.223Z" fill="url(#paint5_linear_166_2577)"/>
<path d="M31.8804 25.7229C32.1565 25.7181 32.3765 25.4903 32.3716 25.2142C32.3668 24.9381 32.1391 24.7182 31.863 24.723L31.8804 25.7229ZM31.863 24.723C31.5869 24.7279 31.367 24.9556 31.3718 25.2317C31.3766 25.5078 31.6043 25.7277 31.8804 25.7229L31.863 24.723ZM31.863 24.723L28.1267 24.7883L28.1441 25.7881L31.8804 25.7229L31.863 24.723ZM28.1267 24.7883C27.3696 24.8015 26.7067 25.0006 26.231 25.4316C25.7456 25.8716 25.5227 26.4918 25.535 27.2005L26.5349 27.1831C26.5265 26.7004 26.673 26.3807 26.9026 26.1726C27.1419 25.9557 27.5396 25.7987 28.1441 25.7881L28.1267 24.7883ZM25.535 27.2005L25.592 30.4667L26.5919 30.4492L26.5349 27.1831L25.535 27.2005ZM25.592 30.4667C25.6044 31.1754 25.8488 31.7874 26.3493 32.2102C26.8397 32.6244 27.5092 32.8003 28.2663 32.787L28.2488 31.7872C27.6444 31.7977 27.2414 31.6547 26.9946 31.4462C26.7579 31.2463 26.6003 30.9319 26.5919 30.4492L25.592 30.4667ZM28.2663 32.787L32.0026 32.7218L31.9851 31.722L28.2488 31.7872L28.2663 32.787ZM32.0026 32.7218C32.7597 32.7086 33.422 32.5095 33.8969 32.078C34.3815 31.6378 34.603 31.0176 34.5907 30.3096L33.5908 30.3271C33.5993 30.8105 33.4532 31.1301 33.2245 31.3379C32.9861 31.5544 32.5896 31.7114 31.9851 31.722L32.0026 32.7218ZM34.5907 30.3096L34.5337 27.0434L33.5338 27.0609L33.5908 30.3271L34.5907 30.3096ZM34.5337 27.0434C34.5213 26.3355 34.2782 25.7234 33.7786 25.3003C33.2889 24.8857 32.6201 24.7098 31.863 24.723L31.8804 25.7229C32.4849 25.7123 32.8867 25.8554 33.1324 26.0635C33.3682 26.2631 33.5254 26.5775 33.5338 27.0609L34.5337 27.0434Z" fill="url(#paint6_linear_166_2577)" mask="url(#path-9-outside-4_166_2577)"/>
</g>
<g filter="url(#filter6_bd_166_2577)">
<path d="M32.89 27.3984L31.2928 29.4215C31.2256 29.5094 31.1248 29.5668 31.0136 29.5804C30.9024 29.594 30.7903 29.5627 30.7031 29.4937L29.1698 28.3136L27.7888 30.0669C27.6888 30.2228 27.4941 30.2928 27.3149 30.2373C27.1358 30.1818 27.0175 30.0148 27.0271 29.8309C27.0263 29.7399 27.0575 29.6514 27.1156 29.5804L28.7668 27.49C28.8332 27.4027 28.9326 27.3454 29.0427 27.3309C29.1527 27.3164 29.2641 27.3459 29.3516 27.4129L30.8849 28.5978L32.2315 26.8975C32.2962 26.8098 32.3944 26.7516 32.5037 26.7362C32.613 26.7208 32.724 26.7494 32.8114 26.8156C32.9918 26.9542 33.0267 27.2085 32.89 27.3888V27.3984Z" fill="url(#paint7_linear_166_2577)"/>
</g>
<g filter="url(#filter7_bd_166_2577)">
<mask id="path-12-inside-5_166_2577" fill="white">
<path fill-rule="evenodd" clip-rule="evenodd" d="M20.2526 16.4607C20.0667 16.4639 19.9163 16.6197 19.9196 16.8093L19.9923 20.9723C19.9955 21.1582 20.1513 21.3087 20.3372 21.3054C20.5268 21.3021 20.6772 21.1463 20.674 20.9604L20.6013 16.7974C20.598 16.6078 20.4422 16.4574 20.2526 16.4607ZM18.3625 17.8393C18.1766 17.8425 18.0262 17.9983 18.0295 18.1879L18.0786 21.0058C18.0819 21.1917 18.2377 21.3421 18.4236 21.3389C18.6131 21.3356 18.7636 21.1798 18.7603 20.9939L18.7112 18.176C18.7078 17.9864 18.5521 17.836 18.3625 17.8393ZM21.8539 19.6089C21.8506 19.4194 22.001 19.2636 22.1906 19.2603C22.3765 19.257 22.5323 19.4075 22.5356 19.597L22.5588 20.9276C22.562 21.1135 22.4116 21.2693 22.222 21.2726C22.0361 21.2759 21.8803 21.1254 21.8771 20.9395L21.8539 19.6089Z"/>
</mask>
<path fill-rule="evenodd" clip-rule="evenodd" d="M20.2526 16.4607C20.0667 16.4639 19.9163 16.6197 19.9196 16.8093L19.9923 20.9723C19.9955 21.1582 20.1513 21.3087 20.3372 21.3054C20.5268 21.3021 20.6772 21.1463 20.674 20.9604L20.6013 16.7974C20.598 16.6078 20.4422 16.4574 20.2526 16.4607ZM18.3625 17.8393C18.1766 17.8425 18.0262 17.9983 18.0295 18.1879L18.0786 21.0058C18.0819 21.1917 18.2377 21.3421 18.4236 21.3389C18.6131 21.3356 18.7636 21.1798 18.7603 20.9939L18.7112 18.176C18.7078 17.9864 18.5521 17.836 18.3625 17.8393ZM21.8539 19.6089C21.8506 19.4194 22.001 19.2636 22.1906 19.2603C22.3765 19.257 22.5323 19.4075 22.5356 19.597L22.5588 20.9276C22.562 21.1135 22.4116 21.2693 22.222 21.2726C22.0361 21.2759 21.8803 21.1254 21.8771 20.9395L21.8539 19.6089Z" fill="url(#paint8_linear_166_2577)"/>
<path d="M19.9196 16.8093L18.9198 16.8267L19.9196 16.8093ZM19.9923 20.9723L20.9921 20.9549L19.9923 20.9723ZM20.674 20.9604L19.6741 20.9779L20.674 20.9604ZM20.6013 16.7974L21.6011 16.7799L20.6013 16.7974ZM18.0295 18.1879L17.0296 18.2053L18.0295 18.1879ZM18.0786 21.0058L19.0785 20.9883L18.0786 21.0058ZM18.7603 20.9939L19.7602 20.9764L18.7603 20.9939ZM18.7112 18.176L17.7113 18.1934L18.7112 18.176ZM22.5356 19.597L23.5354 19.5796L22.5356 19.597ZM22.5588 20.9276L21.5589 20.9451L22.5588 20.9276ZM20.9194 16.7918C20.9257 17.1475 20.6433 17.454 20.2701 17.4605L20.2352 15.4608C19.4901 15.4738 18.9069 16.0919 18.9198 16.8267L20.9194 16.7918ZM20.9921 20.9549L20.9194 16.7918L18.9198 16.8267L18.9924 20.9898L20.9921 20.9549ZM20.3198 20.3056C20.686 20.2992 20.9857 20.5886 20.9921 20.9549L18.9924 20.9898C19.0053 21.7279 19.6165 22.3181 20.3547 22.3053L20.3198 20.3056ZM19.6741 20.9779C19.6676 20.6046 19.9641 20.3118 20.3198 20.3056L20.3547 22.3053C21.0894 22.2924 21.6868 21.688 21.6738 20.943L19.6741 20.9779ZM19.6014 16.8148L19.6741 20.9779L21.6738 20.943L21.6011 16.7799L19.6014 16.8148ZM20.2701 17.4605C19.9075 17.4669 19.6078 17.1775 19.6014 16.8148L21.6011 16.7799C21.5882 16.0382 20.9769 15.4479 20.2352 15.4608L20.2701 17.4605ZM19.0293 18.1704C19.0355 18.5261 18.7532 18.8326 18.38 18.8391L18.3451 16.8395C17.6 16.8525 17.0168 17.4705 17.0296 18.2053L19.0293 18.1704ZM19.0785 20.9883L19.0293 18.1704L17.0296 18.2053L17.0788 21.0232L19.0785 20.9883ZM18.4061 20.339C18.7724 20.3326 19.0721 20.622 19.0785 20.9883L17.0788 21.0232C17.0917 21.7613 17.7029 22.3516 18.441 22.3387L18.4061 20.339ZM17.7605 21.0113C17.754 20.6381 18.0505 20.3452 18.4061 20.339L18.441 22.3387C19.1758 22.3259 19.7732 21.7215 19.7602 20.9764L17.7605 21.0113ZM17.7113 18.1934L17.7605 21.0113L19.7602 20.9764L19.711 18.1585L17.7113 18.1934ZM18.38 18.8391C18.0173 18.8455 17.7176 18.5561 17.7113 18.1934L19.711 18.1585C19.6981 17.4168 19.0868 16.8265 18.3451 16.8395L18.38 18.8391ZM22.1731 18.2604C21.4314 18.2734 20.8411 18.8846 20.854 19.6264L22.8537 19.5915C22.8601 19.9541 22.5707 20.2538 22.208 20.2601L22.1731 18.2604ZM23.5354 19.5796C23.5226 18.8448 22.9182 18.2474 22.1731 18.2604L22.208 20.2601C21.8348 20.2667 21.5419 19.9702 21.5357 19.6145L23.5354 19.5796ZM23.5586 20.9102L23.5354 19.5796L21.5357 19.6145L21.5589 20.9451L23.5586 20.9102ZM22.2395 22.2725C22.9743 22.2596 23.5716 21.6552 23.5586 20.9102L21.5589 20.9451C21.5524 20.5718 21.8489 20.279 22.2046 20.2728L22.2395 22.2725ZM20.8773 20.957C20.8901 21.6951 21.5014 22.2853 22.2395 22.2725L22.2046 20.2728C22.5709 20.2664 22.8706 20.5558 22.8769 20.9221L20.8773 20.957ZM20.854 19.6264L20.8773 20.957L22.8769 20.9221L22.8537 19.5915L20.854 19.6264Z" fill="url(#paint9_linear_166_2577)" mask="url(#path-12-inside-5_166_2577)"/>
</g>
<defs>
<filter id="filter0_b_166_2577" x="-2.01837" y="-2.52011" width="45.536" height="45.5358" filterUnits="userSpaceOnUse" color-interpolation-filters="sRGB">
<feFlood flood-opacity="0" result="BackgroundImageFix"/>
<feGaussianBlur in="BackgroundImageFix" stdDeviation="6.5"/>
<feComposite in2="SourceAlpha" operator="in" result="effect1_backgroundBlur_166_2577"/>
<feBlend mode="normal" in="SourceGraphic" in2="effect1_backgroundBlur_166_2577" result="shape"/>
</filter>
<filter id="filter1_f_166_2577" x="0.476257" y="0.104675" width="39.0407" height="39.4739" filterUnits="userSpaceOnUse" color-interpolation-filters="sRGB">
<feFlood flood-opacity="0" result="BackgroundImageFix"/>
<feBlend mode="normal" in="SourceGraphic" in2="BackgroundImageFix" result="shape"/>
<feGaussianBlur stdDeviation="6.5" result="effect1_foregroundBlur_166_2577"/>
</filter>
<filter id="filter2_b_166_2577" x="13.5322" y="12.8969" width="13.0566" height="12.0654" filterUnits="userSpaceOnUse" color-interpolation-filters="sRGB">
<feFlood flood-opacity="0" result="BackgroundImageFix"/>
<feGaussianBlur in="BackgroundImageFix" stdDeviation="1"/>
<feComposite in2="SourceAlpha" operator="in" result="effect1_backgroundBlur_166_2577"/>
<feBlend mode="normal" in="SourceGraphic" in2="effect1_backgroundBlur_166_2577" result="shape"/>
</filter>
<filter id="filter3_b_166_2577" x="22.5345" y="11.7224" width="15.0566" height="14.0654" filterUnits="userSpaceOnUse" color-interpolation-filters="sRGB">
<feFlood flood-opacity="0" result="BackgroundImageFix"/>
<feGaussianBlur in="BackgroundImageFix" stdDeviation="1.5"/>
<feComposite in2="SourceAlpha" operator="in" result="effect1_backgroundBlur_166_2577"/>
<feBlend mode="normal" in="SourceGraphic" in2="effect1_backgroundBlur_166_2577" result="shape"/>
</filter>
<filter id="filter4_b_166_2577" x="12.5322" y="21.8969" width="15.0566" height="14.0654" filterUnits="userSpaceOnUse" color-interpolation-filters="sRGB">
<feFlood flood-opacity="0" result="BackgroundImageFix"/>
<feGaussianBlur in="BackgroundImageFix" stdDeviation="1.5"/>
<feComposite in2="SourceAlpha" operator="in" result="effect1_backgroundBlur_166_2577"/>
<feBlend mode="normal" in="SourceGraphic" in2="effect1_backgroundBlur_166_2577" result="shape"/>
</filter>
<filter id="filter5_b_166_2577" x="23.5345" y="22.7224" width="13.0566" height="12.0654" filterUnits="userSpaceOnUse" color-interpolation-filters="sRGB">
<feFlood flood-opacity="0" result="BackgroundImageFix"/>
<feGaussianBlur in="BackgroundImageFix" stdDeviation="1"/>
<feComposite in2="SourceAlpha" operator="in" result="effect1_backgroundBlur_166_2577"/>
<feBlend mode="normal" in="SourceGraphic" in2="effect1_backgroundBlur_166_2577" result="shape"/>
</filter>
<filter id="filter6_bd_166_2577" x="12.0266" y="11.7321" width="35.9469" height="33.5241" filterUnits="userSpaceOnUse" color-interpolation-filters="sRGB">
<feFlood flood-opacity="0" result="BackgroundImageFix"/>
<feGaussianBlur in="BackgroundImageFix" stdDeviation="7.5"/>
<feComposite in2="SourceAlpha" operator="in" result="effect1_backgroundBlur_166_2577"/>
<feColorMatrix in="SourceAlpha" type="matrix" values="0 0 0 0 0 0 0 0 0 0 0 0 0 0 0 0 0 0 127 0" result="hardAlpha"/>
<feOffset dx="5" dy="5"/>
<feGaussianBlur stdDeviation="5"/>
<feColorMatrix type="matrix" values="0 0 0 0 0.188235 0 0 0 0 0.243137 0 0 0 0 0.960784 0 0 0 0.5 0"/>
<feBlend mode="normal" in2="effect1_backgroundBlur_166_2577" result="effect2_dropShadow_166_2577"/>
<feBlend mode="normal" in="SourceGraphic" in2="effect2_dropShadow_166_2577" result="shape"/>
</filter>
<filter id="filter7_bd_166_2577" x="3.02942" y="1.46063" width="34.5294" height="34.8783" filterUnits="userSpaceOnUse" color-interpolation-filters="sRGB">
<feFlood flood-opacity="0" result="BackgroundImageFix"/>
<feGaussianBlur in="BackgroundImageFix" stdDeviation="7.5"/>
<feComposite in2="SourceAlpha" operator="in" result="effect1_backgroundBlur_166_2577"/>
<feColorMatrix in="SourceAlpha" type="matrix" values="0 0 0 0 0 0 0 0 0 0 0 0 0 0 0 0 0 0 127 0" result="hardAlpha"/>
<feOffset dx="5" dy="5"/>
<feGaussianBlur stdDeviation="5"/>
<feColorMatrix type="matrix" values="0 0 0 0 0.188235 0 0 0 0 0.243137 0 0 0 0 0.960784 0 0 0 0.5 0"/>
<feBlend mode="normal" in2="effect1_backgroundBlur_166_2577" result="effect2_dropShadow_166_2577"/>
<feBlend mode="normal" in="SourceGraphic" in2="effect2_dropShadow_166_2577" result="shape"/>
</filter>
<linearGradient id="paint0_linear_166_2577" x1="20.749" y1="17.7689" x2="4.02096" y2="11.4411" gradientUnits="userSpaceOnUse">
<stop stop-color="#303EF5" stop-opacity="0.38"/>
<stop offset="1" stop-color="#3543F6"/>
</linearGradient>
<linearGradient id="paint1_linear_166_2577" x1="24.0314" y1="15.3598" x2="16.3305" y2="22.7624" gradientUnits="userSpaceOnUse">
<stop stop-color="#303EF5" stop-opacity="0.38"/>
<stop offset="1" stop-color="#3543F6"/>
</linearGradient>
<linearGradient id="paint2_linear_166_2577" x1="17.2875" y1="16.2932" x2="23.9695" y2="23.7161" gradientUnits="userSpaceOnUse">
<stop stop-color="white" stop-opacity="0.25"/>
<stop offset="1" stop-color="white" stop-opacity="0"/>
</linearGradient>
<linearGradient id="paint3_linear_166_2577" x1="27.2899" y1="16.1186" x2="33.9719" y2="23.5415" gradientUnits="userSpaceOnUse">
<stop stop-color="white" stop-opacity="0.25"/>
<stop offset="1" stop-color="white" stop-opacity="0"/>
</linearGradient>
<linearGradient id="paint4_linear_166_2577" x1="17.2875" y1="26.2932" x2="23.9695" y2="33.7161" gradientUnits="userSpaceOnUse">
<stop stop-color="white" stop-opacity="0.25"/>
<stop offset="1" stop-color="white" stop-opacity="0"/>
</linearGradient>
<linearGradient id="paint5_linear_166_2577" x1="34.0338" y1="25.1852" x2="26.3328" y2="32.5878" gradientUnits="userSpaceOnUse">
<stop stop-color="#303EF5" stop-opacity="0.38"/>
<stop offset="1" stop-color="#3543F6"/>
</linearGradient>
<linearGradient id="paint6_linear_166_2577" x1="27.2899" y1="26.1186" x2="33.9719" y2="33.5415" gradientUnits="userSpaceOnUse">
<stop stop-color="white" stop-opacity="0.25"/>
<stop offset="1" stop-color="white" stop-opacity="0"/>
</linearGradient>
<linearGradient id="paint7_linear_166_2577" x1="32.5518" y1="27.3685" x2="25.9405" y2="27.7322" gradientUnits="userSpaceOnUse">
<stop stop-color="white"/>
<stop offset="1" stop-color="white" stop-opacity="0.2"/>
</linearGradient>
<linearGradient id="paint8_linear_166_2577" x1="16.9031" y1="20.1162" x2="19.0771" y2="24.391" gradientUnits="userSpaceOnUse">
<stop stop-color="white"/>
<stop offset="1" stop-color="white" stop-opacity="0.2"/>
</linearGradient>
<linearGradient id="paint9_linear_166_2577" x1="18.723" y1="17.052" x2="21.9182" y2="20.5851" gradientUnits="userSpaceOnUse">
<stop stop-color="white" stop-opacity="0.25"/>
<stop offset="1" stop-color="white" stop-opacity="0"/>
</linearGradient>
</defs>
</svg>
