<svg width="25" height="25" viewBox="0 0 25 25" fill="none" xmlns="http://www.w3.org/2000/svg">
<path d="M9.50079 14.2515C9.50079 15.2215 10.2508 16.0015 11.1708 16.0015H13.0508C13.8508 16.0015 14.5008 15.3215 14.5008 14.4715C14.5008 13.5615 14.1008 13.2315 13.5108 13.0215L10.5008 11.9715C9.91079 11.7615 9.5108 11.4415 9.5108 10.5215C9.5108 9.68154 10.1608 8.99154 10.9608 8.99154H12.8408C13.7608 8.99154 14.5108 9.77154 14.5108 10.7415" stroke="#303EF5" stroke-width="1.50012" stroke-linecap="round" stroke-linejoin="round"/>
<path d="M12.0008 8.00153V17.0015" stroke="#303EF5" stroke-width="1.50012" stroke-linecap="round" stroke-linejoin="round"/>
<path d="M22.0016 12.5017C22.0016 18.0222 17.5213 22.5026 12.0008 22.5026C6.48037 22.5026 2 18.0222 2 12.5017C2 6.98128 6.48037 2.50092 12.0008 2.50092" stroke="#303EF5" stroke-width="1.50012" stroke-linecap="round" stroke-linejoin="round"/>
<path d="M17.0014 3.50116V7.50116H21.0014" stroke="#303EF5" stroke-width="1.50012" stroke-linecap="round" stroke-linejoin="round"/>
<path d="M22.0014 2.50108L17.0014 7.50108" stroke="#303EF5" stroke-width="1.50012" stroke-linecap="round" stroke-linejoin="round"/>
</svg>
