<svg width="34" height="33" viewBox="0 0 34 33" fill="none" xmlns="http://www.w3.org/2000/svg">
<path opacity="0.4" d="M24.9764 13.7362C24.9764 19.6657 20.1696 24.4725 14.2402 24.4725C8.31069 24.4725 3.50391 19.6657 3.50391 13.7362C3.50391 7.80678 8.31069 3 14.2402 3C20.1696 3 24.9764 7.80678 24.9764 13.7362Z" fill="url(#paint0_linear_166_2534)" stroke="url(#paint1_linear_166_2534)" stroke-width="0.5"/>
<path d="M30.7126 21.9863C30.7126 26.5238 27.0276 30.2087 22.4901 30.2087C19.6851 30.2087 17.2239 28.8063 15.7389 26.675C21.7339 26.0013 26.5051 21.23 27.1789 15.235C29.3101 16.72 30.7126 19.1813 30.7126 21.9863Z" fill="#303EF5"/>
<path d="M16.2477 13.3513L12.9477 12.1963C12.6177 12.0863 12.5489 12.0588 12.5489 11.5775C12.5489 11.22 12.7964 10.9313 13.1127 10.9313H15.1752C15.6152 10.9313 15.9727 11.33 15.9727 11.825C15.9727 12.3888 16.4402 12.8563 17.0039 12.8563C17.5677 12.8563 18.0352 12.3888 18.0352 11.825C18.0352 10.2438 16.8114 8.95125 15.2852 8.8825V8.81375C15.2852 8.25 14.8177 7.7825 14.2539 7.7825C13.6902 7.7825 13.2227 8.23625 13.2227 8.81375V8.8825H13.0989C11.6552 8.8825 10.4727 10.0925 10.4727 11.5913C10.4727 12.8975 11.0502 13.7363 12.2464 14.1488L15.5602 15.3038C15.8902 15.4138 15.9589 15.4413 15.9589 15.9225C15.9589 16.28 15.7114 16.5688 15.3952 16.5688H13.3327C12.8927 16.5688 12.5352 16.17 12.5352 15.675C12.5352 15.1113 12.0677 14.6438 11.5039 14.6438C10.9402 14.6438 10.4727 15.1113 10.4727 15.675C10.4727 17.2563 11.6964 18.5488 13.2227 18.6175V18.7C13.2227 19.2638 13.6902 19.7313 14.2539 19.7313C14.8177 19.7313 15.2852 19.2638 15.2852 18.7V18.6313H15.4089C16.8527 18.6313 18.0352 17.4213 18.0352 15.9225C18.0352 14.6163 17.4439 13.7775 16.2477 13.3513Z" fill="#303EF5"/>
<defs>
<linearGradient id="paint0_linear_166_2534" x1="9.44141" y1="5.5" x2="14.2402" y2="24.7225" gradientUnits="userSpaceOnUse">
<stop stop-color="#303EF5"/>
<stop offset="1" stop-color="#303EF5" stop-opacity="0"/>
</linearGradient>
<linearGradient id="paint1_linear_166_2534" x1="7.37891" y1="2.75" x2="14.2402" y2="24.7225" gradientUnits="userSpaceOnUse">
<stop stop-color="white"/>
<stop offset="1" stop-color="white" stop-opacity="0"/>
</linearGradient>
</defs>
</svg>
